<svg width="24" height="24" viewBox="0 0 24 24" fill="none" xmlns="http://www.w3.org/2000/svg">
<path d="M1.66669 14C1.11469 14 0.666687 13.552 0.666687 13V11C0.666687 10.448 1.11469 10 1.66669 10C2.21869 10 2.66669 10.448 2.66669 11V13C2.66669 13.552 2.21869 14 1.66669 14Z" fill="#00956C" style="fill:#00956C;fill:color(display-p3 0.0000 0.5843 0.4235);fill-opacity:1;"/>
<path d="M21.6667 14C21.1147 14 20.6667 13.552 20.6667 13V11C20.6667 10.448 21.1147 10 21.6667 10C22.2187 10 22.6667 10.448 22.6667 11V13C22.6667 13.552 22.2187 14 21.6667 14Z" fill="#00956C" style="fill:#00956C;fill:color(display-p3 0.0000 0.5843 0.4235);fill-opacity:1;"/>
<path d="M5.66669 20C5.11469 20 4.66669 19.552 4.66669 19V5C4.66669 4.448 5.11469 4 5.66669 4C6.21869 4 6.66669 4.448 6.66669 5V19C6.66669 19.552 6.21869 20 5.66669 20Z" fill="#00956C" style="fill:#00956C;fill:color(display-p3 0.0000 0.5843 0.4235);fill-opacity:1;"/>
<path d="M9.66669 17.3333C9.11469 17.3333 8.66669 16.8853 8.66669 16.3333V7.66666C8.66669 7.11466 9.11469 6.66666 9.66669 6.66666C10.2187 6.66666 10.6667 7.11466 10.6667 7.66666V16.3333C10.6667 16.8853 10.2187 17.3333 9.66669 17.3333Z" fill="#00956C" style="fill:#00956C;fill:color(display-p3 0.0000 0.5843 0.4235);fill-opacity:1;"/>
<path d="M13.6667 21.3333C13.1147 21.3333 12.6667 20.8853 12.6667 20.3333V3.66666C12.6667 3.11466 13.1147 2.66666 13.6667 2.66666C14.2187 2.66666 14.6667 3.11466 14.6667 3.66666V20.3333C14.6667 20.8853 14.2187 21.3333 13.6667 21.3333Z" fill="#00956C" style="fill:#00956C;fill:color(display-p3 0.0000 0.5843 0.4235);fill-opacity:1;"/>
<path d="M17.6667 17.3333C17.1147 17.3333 16.6667 16.8853 16.6667 16.3333V7.66666C16.6667 7.11466 17.1147 6.66666 17.6667 6.66666C18.2187 6.66666 18.6667 7.11466 18.6667 7.66666V16.3333C18.6667 16.8853 18.2187 17.3333 17.6667 17.3333Z" fill="#00956C" style="fill:#00956C;fill:color(display-p3 0.0000 0.5843 0.4235);fill-opacity:1;"/>
</svg>
