<svg width="25" height="25" viewBox="0 0 25 25" fill="none" xmlns="http://www.w3.org/2000/svg">
<g filter="url(#filter0_g_859_8232)">
<path d="M12.0167 1.3501C6.13534 1.3501 1.35001 6.13543 1.35001 12.0168C1.35001 17.8981 6.13534 22.6834 12.0167 22.6834C17.898 22.6834 22.6833 17.8981 22.6833 12.0168C22.6833 6.13543 17.898 1.3501 12.0167 1.3501ZM17.1727 15.5861C16.978 15.8661 16.6673 16.0168 16.35 16.0168C16.154 16.0168 15.9553 15.9594 15.782 15.8394L11.4487 12.8394C11.178 12.6528 11.018 12.3448 11.018 12.0168V6.3501C11.018 5.7981 11.466 5.3501 12.018 5.3501C12.57 5.3501 13.018 5.7981 13.018 6.3501V11.4928L16.9207 14.1941C17.3753 14.5088 17.4887 15.1314 17.174 15.5848L17.1727 15.5861Z" fill="#00956C" style="fill:#00956C;fill:color(display-p3 0.0000 0.5843 0.4235);fill-opacity:1;"/>
</g>
<defs>
<filter id="filter0_g_859_8232" x="-1.33334" y="-1.33315" width="26.7" height="26.7" filterUnits="userSpaceOnUse" color-interpolation-filters="sRGB">
<feFlood flood-opacity="0" result="BackgroundImageFix"/>
<feBlend mode="normal" in="SourceGraphic" in2="BackgroundImageFix" result="shape"/>
<feTurbulence type="fractalNoise" baseFrequency="0.086021505296230316 0.086021505296230316" numOctaves="3" seed="842" />
<feDisplacementMap in="shape" scale="2.6999998092651367" xChannelSelector="R" yChannelSelector="G" result="displacedImage" width="100%" height="100%" />
<feMerge result="effect1_texture_859_8232">
<feMergeNode in="displacedImage"/>
</feMerge>
</filter>
</defs>
</svg>
