<svg width="34" height="33" viewBox="0 0 34 33" fill="none" xmlns="http://www.w3.org/2000/svg">
<g filter="url(#filter0_g_859_8492)">
<path d="M16.6293 19.3427C17.2427 19.2645 17.8613 19.2147 18.4907 19.2147C18.768 19.2147 19.0364 19.2556 19.312 19.2716L18.4195 12.5658L29.4578 19.7587C29.6782 19.9027 29.9324 19.9756 30.1867 19.9756C30.3929 19.9756 30.6009 19.9276 30.7911 19.8298C31.216 19.6129 31.4933 19.188 31.5182 18.7116C31.7173 14.9302 29.8773 11.3018 26.7147 9.24135C25.9538 8.74535 25.1378 8.36135 24.2933 8.08046L29.2462 5.96846C29.6853 5.78179 29.9893 5.37468 30.048 4.90001C30.1049 4.42712 29.904 3.95957 29.5235 3.67335C26.992 1.77823 23.6178 1.36935 20.7164 2.6049C19.0382 3.32135 17.664 4.5409 16.7164 6.04312C15.7689 4.5409 14.3929 3.32135 12.7147 2.6049C9.81688 1.36935 6.44088 1.77823 3.90933 3.67335C3.5271 3.95957 3.32622 4.42712 3.38488 4.90001C3.44177 5.37468 3.74755 5.78001 4.18666 5.96846L9.13955 8.08046C8.2951 8.36135 7.4791 8.74535 6.71822 9.24135C3.55555 11.3018 1.71555 14.9302 1.91466 18.7116C1.93955 19.188 2.21688 19.6129 2.64177 19.8298C2.83199 19.9276 3.03999 19.9756 3.24622 19.9756C3.50044 19.9756 3.75466 19.9027 3.9751 19.7587L15.6764 12.1338L16.6364 19.3445L16.6293 19.3427Z" fill="#D4D4D8" style="fill:#D4D4D8;fill:color(display-p3 0.8314 0.8314 0.8471);fill-opacity:1;"/>
<path d="M29.1484 28.3822C27.0756 24.3734 22.992 21.8827 18.4907 21.8827C13.9893 21.8827 9.90578 24.3734 7.83289 28.3822C7.61778 28.7947 7.63556 29.2907 7.87733 29.6871C8.11911 30.0836 8.55111 30.3271 9.01689 30.3271H27.9644C28.4302 30.3271 28.8604 30.0854 29.104 29.6871C29.3476 29.2889 29.3636 28.7947 29.1484 28.3822Z" fill="#D4D4D8" style="fill:#D4D4D8;fill:color(display-p3 0.8314 0.8314 0.8471);fill-opacity:1;"/>
</g>
<defs>
<filter id="filter0_g_859_8492" x="-1.18751" y="-1.79514" width="35.8" height="35.8" filterUnits="userSpaceOnUse" color-interpolation-filters="sRGB">
<feFlood flood-opacity="0" result="BackgroundImageFix"/>
<feBlend mode="normal" in="SourceGraphic" in2="BackgroundImageFix" result="shape"/>
<feTurbulence type="fractalNoise" baseFrequency="0.079365074634552002 0.079365074634552002" numOctaves="3" seed="842" />
<feDisplacementMap in="shape" scale="3.7999999523162842" xChannelSelector="R" yChannelSelector="G" result="displacedImage" width="100%" height="100%" />
<feMerge result="effect1_texture_859_8492">
<feMergeNode in="displacedImage"/>
</feMerge>
</filter>
</defs>
</svg>
