<svg width="19" height="18" viewBox="0 0 19 18" fill="none" xmlns="http://www.w3.org/2000/svg">
<g filter="url(#filter0_g_859_12519)">
<path d="M14.2625 1.99951H3.76245C2.24545 1.99951 1.01245 3.23251 1.01245 4.74951V13.2495C1.01245 14.7665 2.24545 15.9995 3.76245 15.9995H14.2625C15.7795 15.9995 17.0125 14.7665 17.0125 13.2495V4.74951C17.0125 3.23251 15.7795 1.99951 14.2625 1.99951ZM7.01245 3.99951C7.56445 3.99951 8.01245 4.44751 8.01245 4.99951C8.01245 5.55151 7.56445 5.99951 7.01245 5.99951C6.46045 5.99951 6.01245 5.55151 6.01245 4.99951C6.01245 4.44751 6.46045 3.99951 7.01245 3.99951ZM4.01245 3.99951C4.56445 3.99951 5.01245 4.44751 5.01245 4.99951C5.01245 5.55151 4.56445 5.99951 4.01245 5.99951C3.46045 5.99951 3.01245 5.55151 3.01245 4.99951C3.01245 4.44751 3.46045 3.99951 4.01245 3.99951ZM15.5125 13.2495C15.5125 13.9385 14.9515 14.4995 14.2625 14.4995H3.76245C3.07345 14.4995 2.51245 13.9385 2.51245 13.2495V7.99951H15.5125V13.2495Z" fill="#00956C" style="fill:#00956C;fill:color(display-p3 0.0000 0.5843 0.4235);fill-opacity:1;"/>
</g>
<defs>
<filter id="filter0_g_859_12519" x="-0.999805" y="-1.0125" width="20.025" height="20.025" filterUnits="userSpaceOnUse" color-interpolation-filters="sRGB">
<feFlood flood-opacity="0" result="BackgroundImageFix"/>
<feBlend mode="normal" in="SourceGraphic" in2="BackgroundImageFix" result="shape"/>
<feTurbulence type="fractalNoise" baseFrequency="0.11469534039497375 0.11469534039497375" numOctaves="3" seed="842" />
<feDisplacementMap in="shape" scale="2.0249998569488525" xChannelSelector="R" yChannelSelector="G" result="displacedImage" width="100%" height="100%" />
<feMerge result="effect1_texture_859_12519">
<feMergeNode in="displacedImage"/>
</feMerge>
</filter>
</defs>
</svg>
