<svg width="24" height="25" viewBox="0 0 24 25" fill="none" xmlns="http://www.w3.org/2000/svg">
<g filter="url(#filter0_g_859_8242)">
<path d="M20.3333 20.0168C20.8856 20.0168 21.3333 19.5691 21.3333 19.0168C21.3333 18.4646 20.8856 18.0168 20.3333 18.0168C19.781 18.0168 19.3333 18.4646 19.3333 19.0168C19.3333 19.5691 19.781 20.0168 20.3333 20.0168Z" fill="#00956C" style="fill:#00956C;fill:color(display-p3 0.0000 0.5843 0.4235);fill-opacity:1;"/>
<path d="M3.01193 5.62193L4.27327 6.04179L4.6946 7.30419C4.7626 7.50833 4.95327 7.64566 5.16793 7.64566C5.3826 7.64566 5.5746 7.50699 5.64127 7.30419L6.0626 6.04179L7.32393 5.62193C7.52793 5.55353 7.6666 5.36313 7.6666 5.14699C7.6666 4.93113 7.52927 4.74046 7.32527 4.67233L6.06393 4.25246L5.6426 2.98979C5.5066 2.58153 4.8306 2.58153 4.6946 2.98979L4.27327 4.25246L3.01193 4.67233C2.80793 4.74033 2.66927 4.93113 2.66927 5.14699C2.66927 5.36313 2.80793 5.55353 3.01193 5.62193Z" fill="#00956C" style="fill:#00956C;fill:color(display-p3 0.0000 0.5843 0.4235);fill-opacity:1;"/>
<path d="M15.1201 5.2958L16.8041 5.86126L17.3654 7.55753C17.4562 7.83126 17.7121 8.01686 17.9987 8.01686C18.2854 8.01686 18.5401 7.83126 18.6321 7.55753L19.1934 5.86126L20.8774 5.2958C21.1494 5.2046 21.3334 4.9482 21.3334 4.6594C21.3334 4.3706 21.1481 4.1142 20.8761 4.02273L19.1921 3.45726L18.6307 1.761C18.4481 1.21313 17.5481 1.21313 17.3654 1.761L16.8041 3.45726L15.1201 4.02273C14.8481 4.1142 14.6641 4.37073 14.6641 4.6594C14.6641 4.94806 14.8481 5.2046 15.1201 5.2958Z" fill="#00956C" style="fill:#00956C;fill:color(display-p3 0.0000 0.5843 0.4235);fill-opacity:1;"/>
<path d="M15.9904 16.1302L19.3648 12.8425C19.6376 12.5769 19.7352 12.1797 19.618 11.8172C19.5001 11.4552 19.1876 11.1916 18.8106 11.1368L14.1478 10.459L12.0632 6.23436C11.7272 5.55209 10.6061 5.55209 10.2702 6.23436L8.18558 10.459L3.52278 11.1368C3.14585 11.1914 2.83331 11.4552 2.71545 11.8172C2.59825 12.1798 2.69598 12.5769 2.96865 12.8425L6.34305 16.1302L5.54611 20.7728C5.48171 21.1484 5.63598 21.5273 5.94385 21.7513C6.25305 21.9753 6.65998 22.004 6.99718 21.8274L11.1665 19.6348L15.3358 21.8274C15.4824 21.9042 15.6418 21.942 15.8013 21.942C16.0084 21.942 16.2148 21.8776 16.3892 21.7512C16.6972 21.5272 16.8514 21.1484 16.7869 20.7726L15.9904 16.1302Z" fill="#00956C" style="fill:#00956C;fill:color(display-p3 0.0000 0.5843 0.4235);fill-opacity:1;"/>
</g>
<defs>
<filter id="filter0_g_859_8242" x="-1.35" y="-1.33315" width="26.7" height="26.7" filterUnits="userSpaceOnUse" color-interpolation-filters="sRGB">
<feFlood flood-opacity="0" result="BackgroundImageFix"/>
<feBlend mode="normal" in="SourceGraphic" in2="BackgroundImageFix" result="shape"/>
<feTurbulence type="fractalNoise" baseFrequency="0.086021505296230316 0.086021505296230316" numOctaves="3" seed="842" />
<feDisplacementMap in="shape" scale="2.6999998092651367" xChannelSelector="R" yChannelSelector="G" result="displacedImage" width="100%" height="100%" />
<feMerge result="effect1_texture_859_8242">
<feMergeNode in="displacedImage"/>
</feMerge>
</filter>
</defs>
</svg>
