<svg width="32" height="32" viewBox="0 0 32 32" fill="none" xmlns="http://www.w3.org/2000/svg">
<g filter="url(#filter0_g_859_12908)">
<path d="M30.1577 12.0642C30.0013 11.5824 29.5835 11.2304 29.0822 11.1575L20.8688 9.9646L17.1959 2.52105C16.7479 1.61082 15.2528 1.61082 14.8048 2.52105L11.1319 9.96282L2.91861 11.1557C2.41728 11.2286 1.9995 11.5806 1.84306 12.0624C1.68661 12.5442 1.81639 13.0757 2.18084 13.4295L8.12395 19.2215L6.7195 27.401C6.63417 27.9024 6.83861 28.4073 7.24928 28.7059C7.65995 29.0028 8.20573 29.0419 8.65373 28.8073L15.9995 24.9442L23.3453 28.8073C23.5408 28.9104 23.7524 28.9602 23.9657 28.9602C24.2413 28.9602 24.5168 28.8748 24.7497 28.7059C25.1604 28.4073 25.3666 27.9024 25.2795 27.401L23.8751 19.2215L29.8182 13.4295C30.1826 13.0757 30.3124 12.5442 30.1559 12.0624L30.1577 12.0642Z" fill="currentColor" stroke="currentColor" stroke-width="2" stroke-linecap="round" stroke-linejoin="round"/>
</g>
<defs>
<filter id="filter0_g_859_12908" x="-0.9" y="-0.9" width="33.8" height="33.8" filterUnits="userSpaceOnUse" color-interpolation-filters="sRGB">
<feFlood flood-opacity="0" result="BackgroundImageFix"/>
<feBlend mode="normal" in="SourceGraphic" in2="BackgroundImageFix" result="shape"/>
<feTurbulence type="fractalNoise" baseFrequency="0.12903225421905518 0.12903225421905518" numOctaves="3" seed="842" />
<feDisplacementMap in="shape" scale="1.7999999523162842" xChannelSelector="R" yChannelSelector="G" result="displacedImage" width="100%" height="100%" />
<feMerge result="effect1_texture_859_12908">
<feMergeNode in="displacedImage"/>
</feMerge>
</filter>
</defs>
</svg>
