<svg width="24" height="24" viewBox="0 0 24 24" fill="none" xmlns="http://www.w3.org/2000/svg">
<g filter="url(#filter0_g_1023_4326)">
<path d="M17.6667 2.66666H6.33335C4.31122 2.66666 2.66669 4.31119 2.66669 6.33332V17.6667C2.66669 19.6888 4.31122 21.3333 6.33335 21.3333H17.6667C19.6888 21.3333 21.3334 19.6888 21.3334 17.6667V6.33332C21.3334 4.31119 19.6888 2.66666 17.6667 2.66666ZM8.00002 6.66666C8.73642 6.66666 9.33335 7.26372 9.33335 7.99999C9.33335 8.73626 8.73642 9.33332 8.00002 9.33332C7.26362 9.33332 6.66669 8.73626 6.66669 7.99999C6.66669 7.26372 7.26375 6.66666 8.00002 6.66666ZM12.3334 17.3333H7.66669C7.11455 17.3333 6.66669 16.8855 6.66669 16.3333C6.66669 15.7812 7.11455 15.3333 7.66669 15.3333H12.3334C12.8855 15.3333 13.3334 15.7812 13.3334 16.3333C13.3334 16.8855 12.8855 17.3333 12.3334 17.3333ZM16.3334 13.3333H7.66669C7.11455 13.3333 6.66669 12.8855 6.66669 12.3333C6.66669 11.7812 7.11455 11.3333 7.66669 11.3333H16.3334C16.8855 11.3333 17.3334 11.7812 17.3334 12.3333C17.3334 12.8855 16.8855 13.3333 16.3334 13.3333Z" fill="#00956C" style="fill:#00956C;fill:color(display-p3 0.0000 0.5843 0.4235);fill-opacity:1;"/>
</g>
<defs>
<filter id="filter0_g_1023_4326" x="-1.35" y="-1.35" width="26.7" height="26.7" filterUnits="userSpaceOnUse" color-interpolation-filters="sRGB">
<feFlood flood-opacity="0" result="BackgroundImageFix"/>
<feBlend mode="normal" in="SourceGraphic" in2="BackgroundImageFix" result="shape"/>
<feTurbulence type="fractalNoise" baseFrequency="0.086021505296230316 0.086021505296230316" numOctaves="3" seed="842" />
<feDisplacementMap in="shape" scale="2.6999998092651367" xChannelSelector="R" yChannelSelector="G" result="displacedImage" width="100%" height="100%" />
<feMerge result="effect1_texture_1023_4326">
<feMergeNode in="displacedImage"/>
</feMerge>
</filter>
</defs>
</svg>
