<svg width="18" height="18" viewBox="0 0 18 18" fill="none" xmlns="http://www.w3.org/2000/svg">
<path d="M9.56226 1.6875C9.56226 1.53832 9.503 1.39524 9.39751 1.28975C9.29202 1.18426 9.14894 1.125 8.99976 1.125C8.85058 1.125 8.7075 1.18426 8.60201 1.28975C8.49652 1.39524 8.43726 1.53832 8.43726 1.6875V7.58588L7.87476 7.9875V5.31C7.87476 4.24125 7.00851 3.375 5.93976 3.375C5.35026 3.375 4.78889 3.67875 4.31639 4.041C3.83151 4.4145 3.36351 4.91063 2.94839 5.42362C2.12039 6.44513 1.43301 7.61287 1.17089 8.21362C0.972885 8.66925 0.72876 9.51863 0.545385 10.476C0.35976 11.4401 0.22701 12.5651 0.27426 13.5799C0.31926 14.5553 0.536385 15.5936 1.21701 16.2011C1.97076 16.8761 3.04176 16.8266 4.30064 16.1966L6.32001 15.1875C6.78718 14.9539 7.18008 14.5949 7.45468 14.1506C7.72928 13.7063 7.87474 13.1943 7.87476 12.672V11.8125C7.87476 11.6633 7.8155 11.5202 7.71001 11.4148C7.60452 11.3093 7.46144 11.25 7.31226 11.25C7.16308 11.25 7.02 11.3093 6.91451 11.4148C6.80902 11.5202 6.74976 11.6633 6.74976 11.8125V12.672C6.74975 12.9856 6.66238 13.2929 6.49745 13.5596C6.33252 13.8262 6.09655 14.0417 5.81601 14.1818L3.79776 15.1909C2.69751 15.741 2.20589 15.5767 1.96626 15.3619C1.65126 15.0806 1.44089 14.4607 1.39814 13.5281C1.35651 12.6337 1.47464 11.6044 1.65014 10.6875C1.82676 9.765 2.05176 9.01012 2.20251 8.6625C2.41626 8.16975 3.04626 7.0875 3.82251 6.13125C4.20726 5.6565 4.61339 5.23238 5.00264 4.93313C5.40539 4.62263 5.72151 4.5 5.93976 4.5C6.15459 4.5 6.36061 4.58534 6.51252 4.73724C6.66442 4.88915 6.74976 5.09517 6.74976 5.31V8.79075L4.73601 10.2308C4.62308 10.3204 4.54889 10.45 4.52876 10.5928C4.50863 10.7355 4.54409 10.8806 4.62783 10.998C4.71157 11.1154 4.83719 11.1961 4.97875 11.2235C5.12031 11.251 5.26699 11.223 5.38851 11.1454L8.99976 8.56575L12.611 11.1454C12.671 11.191 12.7395 11.2242 12.8125 11.2428C12.8855 11.2615 12.9616 11.2653 13.0361 11.254C13.1106 11.2427 13.1821 11.2165 13.2463 11.1771C13.3105 11.1376 13.3661 11.0856 13.4099 11.0243C13.4536 10.9629 13.4846 10.8933 13.5009 10.8198C13.5172 10.7462 13.5186 10.6701 13.505 10.5959C13.4913 10.5218 13.4629 10.4512 13.4214 10.3883C13.3799 10.3253 13.3262 10.2714 13.2635 10.2296L11.2498 8.79075V5.31C11.2498 5.09517 11.3351 4.88915 11.487 4.73724C11.6389 4.58534 11.8449 4.5 12.0598 4.5C12.278 4.5 12.5941 4.62375 12.9969 4.93313C13.3861 5.23238 13.7911 5.6565 14.1781 6.13238C14.9521 7.08863 15.5821 8.16975 15.797 8.6625C15.9478 9.01012 16.1728 9.765 16.3494 10.6875C16.5249 11.6032 16.6419 12.6337 16.6014 13.5281C16.5586 14.4607 16.3494 15.0806 16.0333 15.3619C15.7936 15.5756 15.302 15.741 14.2018 15.1909L12.1824 14.1818C11.9021 14.0415 11.6663 13.826 11.5016 13.5594C11.3369 13.2927 11.2497 12.9854 11.2498 12.672V11.8125C11.2498 11.6633 11.1905 11.5202 11.085 11.4148C10.9795 11.3093 10.8364 11.25 10.6873 11.25C10.5381 11.25 10.395 11.3093 10.2895 11.4148C10.184 11.5202 10.1248 11.6633 10.1248 11.8125V12.672C10.1248 13.1943 10.2702 13.7063 10.5448 14.1506C10.8194 14.5949 11.2123 14.9539 11.6795 15.1875L13.6989 16.1966C14.9589 16.8266 16.0276 16.875 16.7825 16.2011C17.4631 15.5936 17.6803 14.5553 17.7253 13.5799C17.7725 12.5651 17.6398 11.4401 17.4553 10.476C17.2708 9.5175 17.0278 8.66925 16.8275 8.2125C16.5665 7.61287 15.8791 6.44513 15.0511 5.42362C14.6349 4.91063 14.168 4.4145 13.6831 4.041C13.2106 3.67875 12.6493 3.375 12.0598 3.375C10.991 3.375 10.1248 4.24125 10.1248 5.31V7.9875L9.56226 7.58588V1.6875Z" fill="currentColor"/>
</svg>
