<svg width="214" height="164" viewBox="0 0 214 164" fill="none" xmlns="http://www.w3.org/2000/svg">
<g filter="url(#filter0_g_563_8630)">
<path d="M109 39C125.569 39 139 52.4315 139 69C139 70.8809 138.824 72.7209 138.493 74.5059C140.278 74.1746 142.119 74 144 74C160.569 74 174 87.4315 174 104C174 117.107 165.594 128.249 153.879 132.333C148.97 142.211 138.779 149 127 149C119.555 149 112.744 146.286 107.5 141.796C102.256 146.286 95.4453 149 88 149C71.4315 149 58 135.569 58 119C58 117.863 58.0652 116.74 58.1885 115.636C48.5708 110.638 42 100.588 42 89C42 72.4315 55.4315 59 72 59C74.8873 59 77.679 59.4086 80.3213 60.1699C84.0913 47.911 95.5047 39 109 39Z" fill="white" style="fill:white;fill-opacity:1;"/>
</g>
<g filter="url(#filter1_g_563_8630)">
<path d="M193.8 12.0078C206.614 12.0078 217.067 22.1142 217.626 34.791C222.019 37.178 225 41.8328 225 47.1836C225 53.9744 220.197 59.6427 213.803 60.9785C214.494 62.4528 214.881 64.1074 214.881 65.8555C214.881 72.0425 210.028 77.0584 204.04 77.0586C200.208 77.0586 196.842 75.0019 194.914 71.9004C191.6 75.7928 186.664 78.2627 181.151 78.2627C171.172 78.2627 163.082 70.1727 163.082 60.1934C163.082 58.7656 163.248 57.3762 163.561 56.0439C156.705 52.5981 152 45.5018 152 37.3057C152 25.7298 161.384 16.3459 172.96 16.3457C175.035 16.3457 177.039 16.6485 178.932 17.21C183.009 13.955 188.177 12.0079 193.8 12.0078Z" fill="white" style="fill:white;fill-opacity:1;"/>
</g>
<g filter="url(#filter2_g_563_8630)">
<path d="M80.7554 23.685C90.0007 30.1796 92.231 42.9396 85.7365 52.185C85.6806 52.2645 85.6228 52.3424 85.566 52.4209C94.6166 58.9646 96.7554 71.5868 90.3154 80.7546C83.8753 89.9224 71.2759 92.191 62.0503 85.8958C55.5066 94.9467 42.8847 97.0865 33.7168 90.6466C24.5489 84.2066 22.2799 71.6066 28.5748 62.3809C28.4948 62.3264 28.4138 62.2726 28.3344 62.2168C19.0891 55.7222 16.8589 42.9622 23.3533 33.7168C29.8478 24.4714 42.6078 22.2414 51.8533 28.7357C51.933 28.7917 52.0119 28.8491 52.0905 28.906C52.1451 28.8259 52.1996 28.7457 52.2554 28.6661C58.7499 19.4206 71.5099 17.1905 80.7554 23.685ZM56.9951 57.0001C56.9972 57.0016 56.9993 57.0031 57.0015 57.0046C57.0028 57.0028 57.0041 57.0009 57.0054 56.999C57.0033 56.9975 57.0017 56.9953 56.9996 56.9937C56.9981 56.9959 56.9966 56.998 56.9951 57.0001Z" fill="#03A578" style="fill:#03A578;fill:color(display-p3 0.0133 0.6456 0.4716);fill-opacity:1;"/>
</g>
<g filter="url(#filter3_g_563_8630)">
<path d="M53.8685 44.6077C55.8879 44.0638 57.924 43.8661 59.8371 44.8653C64.2132 47.1502 66.1771 56.0101 62.6871 59.7169C61.771 60.6905 60.8054 61.1803 59.5998 61.5888C57.6514 62.1253 55.5467 62.3806 53.5999 61.4629C49.235 59.4054 48.2093 52.3368 49.8446 48.1815C50.558 46.3686 52.1428 45.2611 53.8685 44.6077Z" fill="white" style="fill:white;fill-opacity:1;"/>
</g>
<g filter="url(#filter4_g_563_8630)">
<path d="M54.6108 45.9796C55.0042 45.8857 55.4129 45.8663 55.8145 45.9228C56.8239 46.0568 59.2008 46.876 58.9929 48.2322C58.8623 49.0784 56.784 49.8767 55.9917 50.4217C55.5343 50.6227 52.0837 50.1709 51.8789 49.4073C51.4483 47.8012 53.4442 46.5078 54.6108 45.9796Z" fill="#18181B" style="fill:#18181B;fill:color(display-p3 0.0941 0.0941 0.1059);fill-opacity:1;"/>
</g>
<g filter="url(#filter5_g_563_8630)">
<path d="M67.8057 44.8165C70.5137 43.9721 71.8677 47.9165 69.7598 49.7857C67.2213 50.6926 65.734 46.8989 67.8057 44.8165Z" fill="white" style="fill:white;fill-opacity:1;"/>
</g>
<g filter="url(#filter6_g_563_8630)">
<path d="M42.7165 49.2061C45.7659 48.2537 47.4311 52.5209 44.5887 54.2149C41.638 54.9336 40.2199 51.1143 42.7165 49.2061Z" fill="white" style="fill:white;fill-opacity:1;"/>
</g>
<g filter="url(#filter7_g_563_8630)">
<path d="M93.0781 112C99.4062 112 104.536 117.13 104.536 123.458C104.536 123.513 104.532 123.568 104.531 123.623C110.787 123.707 115.833 128.801 115.833 135.077C115.833 141.353 110.787 146.448 104.531 146.531C104.447 152.787 99.3527 157.832 93.0771 157.832C86.8014 157.832 81.7067 152.786 81.623 146.53C81.5681 146.531 81.5131 146.535 81.458 146.535C75.13 146.535 70 141.405 70 135.077C70.0002 128.749 75.1301 123.619 81.458 123.619C81.5134 123.619 81.5688 123.622 81.624 123.623C81.6232 123.568 81.6201 123.513 81.6201 123.458C81.6201 117.13 86.7502 112 93.0781 112ZM92.9111 134.919C92.9144 134.919 92.9176 134.919 92.9209 134.919C92.9209 134.917 92.9209 134.914 92.9209 134.912C92.9176 134.912 92.9144 134.911 92.9111 134.911C92.9112 134.914 92.9111 134.916 92.9111 134.919Z" fill="#F1ADCF" style="fill:#F1ADCF;fill:color(display-p3 0.9451 0.6784 0.8118);fill-opacity:1;"/>
</g>
<g filter="url(#filter8_g_563_8630)">
<circle cx="92.9158" cy="134.916" r="10.6414" fill="#EFA73B" style="fill:#EFA73B;fill:color(display-p3 0.9373 0.6549 0.2314);fill-opacity:1;"/>
<circle cx="92.9158" cy="134.916" r="9.14141" stroke="white" style="stroke:white;stroke-opacity:1;" stroke-width="3"/>
</g>
<g filter="url(#filter9_g_563_8630)">
<path d="M134.1 135C137.965 135 141.1 138.134 141.1 142C141.1 142.034 141.097 142.067 141.097 142.101C144.919 142.152 148.001 145.265 148.001 149.099C148.001 152.933 144.917 156.045 141.095 156.095C141.044 159.917 137.933 163 134.099 163C130.264 163 127.151 159.917 127.101 156.095C127.067 156.095 127.034 156.098 127 156.098C123.134 156.098 120 152.964 120 149.099C120 145.233 123.134 142.099 127 142.099C127.034 142.099 127.068 142.1 127.102 142.101C127.101 142.067 127.1 142.034 127.1 142C127.1 138.134 130.234 135 134.1 135ZM133.997 149.002C133.999 149.002 134.001 149.002 134.003 149.002C134.003 149 134.003 148.999 134.003 148.997C134.001 148.997 133.999 148.996 133.997 148.996C133.997 148.998 133.997 149 133.997 149.002Z" fill="#F1ADCF" style="fill:#F1ADCF;fill:color(display-p3 0.9451 0.6784 0.8118);fill-opacity:1;"/>
</g>
<g filter="url(#filter10_g_563_8630)">
<circle cx="134" cy="149" r="6.50112" fill="#EFA73B" style="fill:#EFA73B;fill:color(display-p3 0.9373 0.6549 0.2314);fill-opacity:1;"/>
<circle cx="134" cy="149" r="5.00112" stroke="white" style="stroke:white;stroke-opacity:1;" stroke-width="3"/>
</g>
<defs>
<filter id="filter0_g_563_8630" x="39" y="36" width="138" height="116" filterUnits="userSpaceOnUse" color-interpolation-filters="sRGB">
<feFlood flood-opacity="0" result="BackgroundImageFix"/>
<feBlend mode="normal" in="SourceGraphic" in2="BackgroundImageFix" result="shape"/>
<feTurbulence type="fractalNoise" baseFrequency="0.0476190485060215 0.0476190485060215" numOctaves="3" seed="6553" />
<feDisplacementMap in="shape" scale="6" xChannelSelector="R" yChannelSelector="G" result="displacedImage" width="100%" height="100%" />
<feMerge result="effect1_texture_563_8630">
<feMergeNode in="displacedImage"/>
</feMerge>
</filter>
<filter id="filter1_g_563_8630" x="149" y="9.00781" width="79" height="72.2549" filterUnits="userSpaceOnUse" color-interpolation-filters="sRGB">
<feFlood flood-opacity="0" result="BackgroundImageFix"/>
<feBlend mode="normal" in="SourceGraphic" in2="BackgroundImageFix" result="shape"/>
<feTurbulence type="fractalNoise" baseFrequency="0.0476190485060215 0.0476190485060215" numOctaves="3" seed="6553" />
<feDisplacementMap in="shape" scale="6" xChannelSelector="R" yChannelSelector="G" result="displacedImage" width="100%" height="100%" />
<feMerge result="effect1_texture_563_8630">
<feMergeNode in="displacedImage"/>
</feMerge>
</filter>
<filter id="filter2_g_563_8630" x="18.0207" y="18.3523" width="77.6275" height="77.6267" filterUnits="userSpaceOnUse" color-interpolation-filters="sRGB">
<feFlood flood-opacity="0" result="BackgroundImageFix"/>
<feBlend mode="normal" in="SourceGraphic" in2="BackgroundImageFix" result="shape"/>
<feTurbulence type="fractalNoise" baseFrequency="0.084646768867969513 0.084646768867969513" numOctaves="3" seed="6655" />
<feDisplacementMap in="shape" scale="3.227184534072876" xChannelSelector="R" yChannelSelector="G" result="displacedImage" width="100%" height="100%" />
<feMerge result="effect1_texture_563_8630">
<feMergeNode in="displacedImage"/>
</feMerge>
</filter>
<filter id="filter3_g_563_8630" x="48.8714" y="43.9196" width="15.8448" height="18.3908" filterUnits="userSpaceOnUse" color-interpolation-filters="sRGB">
<feFlood flood-opacity="0" result="BackgroundImageFix"/>
<feBlend mode="normal" in="SourceGraphic" in2="BackgroundImageFix" result="shape"/>
<feTurbulence type="fractalNoise" baseFrequency="0.23926918208599091 0.23926918208599091" numOctaves="3" seed="5192" />
<feDisplacementMap in="shape" scale="0.47613340616226196" xChannelSelector="R" yChannelSelector="G" result="displacedImage" width="100%" height="100%" />
<feMerge result="effect1_texture_563_8630">
<feMergeNode in="displacedImage"/>
</feMerge>
</filter>
<filter id="filter4_g_563_8630" x="51.581" y="45.6531" width="7.66275" height="5.05441" filterUnits="userSpaceOnUse" color-interpolation-filters="sRGB">
<feFlood flood-opacity="0" result="BackgroundImageFix"/>
<feBlend mode="normal" in="SourceGraphic" in2="BackgroundImageFix" result="shape"/>
<feTurbulence type="fractalNoise" baseFrequency="0.33754047751426697 0.33754047751426697" numOctaves="3" seed="5192" />
<feDisplacementMap in="shape" scale="0.47613340616226196" xChannelSelector="R" yChannelSelector="G" result="displacedImage" width="100%" height="100%" />
<feMerge result="effect1_texture_563_8630">
<feMergeNode in="displacedImage"/>
</feMerge>
</filter>
<filter id="filter5_g_563_8630" x="66.5892" y="44.4616" width="4.44096" height="5.69983" filterUnits="userSpaceOnUse" color-interpolation-filters="sRGB">
<feFlood flood-opacity="0" result="BackgroundImageFix"/>
<feBlend mode="normal" in="SourceGraphic" in2="BackgroundImageFix" result="shape"/>
<feTurbulence type="fractalNoise" baseFrequency="0.47702881693840027 0.47702881693840027" numOctaves="3" seed="5192" />
<feDisplacementMap in="shape" scale="0.47613340616226196" xChannelSelector="R" yChannelSelector="G" result="displacedImage" width="100%" height="100%" />
<feMerge result="effect1_texture_563_8630">
<feMergeNode in="displacedImage"/>
</feMerge>
</filter>
<filter id="filter6_g_563_8630" x="41.1929" y="48.8311" width="5.09683" height="5.71075" filterUnits="userSpaceOnUse" color-interpolation-filters="sRGB">
<feFlood flood-opacity="0" result="BackgroundImageFix"/>
<feBlend mode="normal" in="SourceGraphic" in2="BackgroundImageFix" result="shape"/>
<feTurbulence type="fractalNoise" baseFrequency="0.47702881693840027 0.47702881693840027" numOctaves="3" seed="5192" />
<feDisplacementMap in="shape" scale="0.47613340616226196" xChannelSelector="R" yChannelSelector="G" result="displacedImage" width="100%" height="100%" />
<feMerge result="effect1_texture_563_8630">
<feMergeNode in="displacedImage"/>
</feMerge>
</filter>
<filter id="filter7_g_563_8630" x="69.0963" y="111.096" width="47.6405" height="47.6395" filterUnits="userSpaceOnUse" color-interpolation-filters="sRGB">
<feFlood flood-opacity="0" result="BackgroundImageFix"/>
<feBlend mode="normal" in="SourceGraphic" in2="BackgroundImageFix" result="shape"/>
<feTurbulence type="fractalNoise" baseFrequency="0.15113484859466553 0.15113484859466553" numOctaves="3" seed="6655" />
<feDisplacementMap in="shape" scale="1.8074636459350586" xChannelSelector="R" yChannelSelector="G" result="displacedImage" width="100%" height="100%" />
<feMerge result="effect1_texture_563_8630">
<feMergeNode in="displacedImage"/>
</feMerge>
</filter>
<filter id="filter8_g_563_8630" x="81.4903" y="123.49" width="22.851" height="22.851" filterUnits="userSpaceOnUse" color-interpolation-filters="sRGB">
<feFlood flood-opacity="0" result="BackgroundImageFix"/>
<feBlend mode="normal" in="SourceGraphic" in2="BackgroundImageFix" result="shape"/>
<feTurbulence type="fractalNoise" baseFrequency="0.25876477360725403 0.25876477360725403" numOctaves="3" seed="2368" />
<feDisplacementMap in="shape" scale="1.5682084560394287" xChannelSelector="R" yChannelSelector="G" result="displacedImage" width="100%" height="100%" />
<feMerge result="effect1_texture_563_8630">
<feMergeNode in="displacedImage"/>
</feMerge>
</filter>
<filter id="filter9_g_563_8630" x="119.448" y="134.448" width="29.1052" height="29.1042" filterUnits="userSpaceOnUse" color-interpolation-filters="sRGB">
<feFlood flood-opacity="0" result="BackgroundImageFix"/>
<feBlend mode="normal" in="SourceGraphic" in2="BackgroundImageFix" result="shape"/>
<feTurbulence type="fractalNoise" baseFrequency="0.24738632142543793 0.24738632142543793" numOctaves="3" seed="6655" />
<feDisplacementMap in="shape" scale="1.1042274236679077" xChannelSelector="R" yChannelSelector="G" result="displacedImage" width="100%" height="100%" />
<feMerge result="effect1_texture_563_8630">
<feMergeNode in="displacedImage"/>
</feMerge>
</filter>
<filter id="filter10_g_563_8630" x="127.019" y="142.019" width="13.9603" height="13.9603" filterUnits="userSpaceOnUse" color-interpolation-filters="sRGB">
<feFlood flood-opacity="0" result="BackgroundImageFix"/>
<feBlend mode="normal" in="SourceGraphic" in2="BackgroundImageFix" result="shape"/>
<feTurbulence type="fractalNoise" baseFrequency="0.42356127500534058 0.42356127500534058" numOctaves="3" seed="2368" />
<feDisplacementMap in="shape" scale="0.95806014537811279" xChannelSelector="R" yChannelSelector="G" result="displacedImage" width="100%" height="100%" />
<feMerge result="effect1_texture_563_8630">
<feMergeNode in="displacedImage"/>
</feMerge>
</filter>
</defs>
</svg>
