<?xml version="1.0" encoding="UTF-8"?>
<svg version="1.1" xmlns="http://www.w3.org/2000/svg" width="1060" height="1062">
<path d="M0 0 C349.8 0 699.6 0 1060 0 C1060 350.46 1060 700.92 1060 1062 C710.2 1062 360.4 1062 0 1062 C0 711.54 0 361.08 0 0 Z " fill="#17181A" transform="translate(0,0)"/>
<path d="M0 0 C1.07798859 -0.0071553 2.15597717 -0.01431061 3.26663208 -0.02168274 C4.44952316 -0.02437164 5.63241425 -0.02706055 6.85115051 -0.02983093 C8.09694885 -0.03640213 9.34274719 -0.04297333 10.626297 -0.04974365 C14.75960021 -0.06949538 18.8928646 -0.08114598 23.02619934 -0.09111023 C24.45091076 -0.09515876 25.87562199 -0.09927571 27.30033302 -0.10346031 C33.99589277 -0.12251002 40.69144152 -0.13674019 47.38702315 -0.14507228 C55.10596179 -0.15483728 62.8246131 -0.18113813 70.54345053 -0.22157317 C76.51556358 -0.25177992 82.48759449 -0.26654555 88.45978242 -0.26985329 C92.02375532 -0.27219906 95.5874212 -0.28109679 99.15131187 -0.30631447 C103.13207967 -0.3340266 107.1124727 -0.32975008 111.09333801 -0.32279968 C112.26610794 -0.33560974 113.43887787 -0.3484198 114.64718628 -0.36161804 C122.43792437 -0.31208222 127.81177156 0.85556166 133.86270142 5.85493469 C138.49458381 11.78162194 138.6581831 17.1115168 138.55744934 24.45967102 C138.56250237 26.21211121 138.56250237 26.21211121 138.56765747 27.99995422 C138.56735954 30.4608553 138.5521971 32.9217944 138.52302551 35.38252258 C138.48334909 39.13596054 138.50233919 42.88586212 138.52815247 46.63935852 C138.52059272 49.03780964 138.50963864 51.43625297 138.49494934 53.83467102 C138.50193344 54.94946838 138.50891754 56.06426575 138.51611328 57.21284485 C138.39686457 63.8363821 137.71999267 69.34932816 132.79573059 74.14717102 C126.47783499 78.94302783 120.65862454 78.72828777 112.91902161 78.69648743 C111.63362488 78.70670929 110.34822815 78.71693115 109.02388 78.72746277 C105.51342194 78.75413904 102.00339586 78.75541212 98.49285626 78.75033617 C95.55556619 78.74818981 92.6183623 78.757981 89.68109077 78.76754701 C82.74845336 78.78970103 75.81603272 78.79063251 68.88337708 78.77851868 C61.74569476 78.76643789 54.60880082 78.79107082 47.47125298 78.83365881 C41.32916084 78.86895139 35.18731898 78.88088424 29.04512924 78.87438333 C25.38275849 78.87076706 21.72095032 78.8759334 18.05867195 78.90381241 C13.97254288 78.93375714 9.8880072 78.91497867 5.80183411 78.89179993 C4.5979454 78.9070874 3.3940567 78.92237488 2.15368652 78.93812561 C-4.45309961 78.85536924 -8.57405633 78.12854904 -13.67083168 73.79092979 C-19.49337683 67.54948973 -19.81036895 60.93105867 -19.77067566 52.70967102 C-19.77687424 51.63016174 -19.78307281 50.55065247 -19.78945923 49.43843079 C-19.79653369 47.1658976 -19.79342515 44.89331232 -19.78068542 42.62080383 C-19.76680984 39.15726338 -19.80094154 35.69642176 -19.83903503 32.23310852 C-19.83998626 30.01696203 -19.8381272 27.80081218 -19.83317566 25.58467102 C-19.84643387 24.55736877 -19.85969208 23.53006653 -19.87335205 22.47163391 C-19.77675613 14.96004948 -17.99299937 9.95504936 -12.65545654 4.5905304 C-8.49863675 0.94884125 -5.40063935 0.02460152 0 0 Z " fill="#C8E2F0" transform="translate(351.2042694091797,296.8528289794922)"/>
<path d="M0 0 C1.26588959 -0.00700928 2.53177917 -0.01401855 3.83602905 -0.02124023 C7.29281038 -0.03940352 10.74911169 -0.03243502 14.20590091 -0.01972389 C17.83365542 -0.00955744 21.46137036 -0.01899985 25.08912659 -0.02526855 C31.18107436 -0.03253535 37.27282785 -0.02298384 43.36474609 -0.00390625 C50.39321621 0.01785104 57.42122192 0.01081586 64.44968075 -0.01121187 C70.49834474 -0.02940535 76.54686949 -0.03190471 82.59555203 -0.0214572 C86.20189044 -0.01524258 89.8080111 -0.01432995 93.41433525 -0.02760315 C97.43795825 -0.041379 101.46078993 -0.02224794 105.484375 0 C107.26215584 -0.01214539 107.26215584 -0.01214539 109.07585144 -0.02453613 C116.59225986 0.05231736 122.55450902 0.81300335 128.14672852 6.33398438 C128.50895508 6.91019531 128.87118164 7.48640625 129.24438477 8.08007812 C129.81479492 8.94826172 129.81479492 8.94826172 130.39672852 9.83398438 C132.10341681 12.99099148 132.43881258 15.62188831 132.46801758 19.13745117 C132.47762512 20.07239914 132.48723267 21.00734711 132.49713135 21.97062683 C132.50350616 23.4846685 132.50350616 23.4846685 132.51000977 25.02929688 C132.51570984 26.0714888 132.52140991 27.11368073 132.52728271 28.18745422 C132.53673404 30.39571111 132.54326722 32.60398211 132.54711914 34.81225586 C132.55679696 38.17457065 132.58780814 41.53626691 132.61938477 44.8984375 C132.62591782 47.04622034 132.6311671 49.19400754 132.63500977 51.34179688 C132.64735657 52.34103683 132.65970337 53.34027679 132.67242432 54.36979675 C132.65121761 61.08780348 132.06687337 67.12972482 127.65844727 72.54101562 C126.80379883 73.21003906 126.80379883 73.21003906 125.93188477 73.89257812 C125.0849707 74.58480469 125.0849707 74.58480469 124.22094727 75.29101562 C120.17418738 77.88424543 116.62780312 78.76782496 111.84864807 78.77827454 C110.76501984 78.78535934 109.6813916 78.79244415 108.56492615 78.79974365 C107.38608353 78.79726624 106.20724091 78.79478882 104.99267578 78.79223633 C103.7433728 78.79734726 102.49406982 78.80245819 101.20690918 78.807724 C97.7874099 78.81923248 94.36815323 78.8216952 90.94865155 78.8191607 C88.09082972 78.81808952 85.23303014 78.82297811 82.37521309 78.82776612 C75.63163547 78.83885356 68.88811356 78.83930297 62.14453125 78.83325195 C55.19453179 78.82721149 48.24473475 78.83952664 41.29476982 78.86082202 C35.32093854 78.87845137 29.34717161 78.8844373 23.37331527 78.88118428 C19.80839179 78.87937345 16.24361271 78.88198748 12.67871284 78.89589882 C8.7025575 78.91083507 4.72665899 78.90149532 0.75048828 78.88989258 C-0.42633011 78.89753632 -1.6031485 78.90518005 -2.81562805 78.91305542 C-9.50366931 78.86987617 -14.4264498 78.53085441 -19.55639648 73.79882812 C-20.03463867 73.21101562 -20.51288086 72.62320313 -21.00561523 72.01757812 C-21.49674805 71.42976562 -21.98788086 70.84195313 -22.49389648 70.23632812 C-24.71335591 67.05534393 -24.83296344 64.1936921 -24.88598633 60.4387207 C-24.90204926 59.40366898 -24.91811218 58.36861725 -24.93466187 57.30220032 C-24.97923736 52.56369752 -25.02018701 47.82533356 -25.04321289 43.08666992 C-25.05975574 40.59113224 -25.08702328 38.09564161 -25.12524414 35.6003418 C-25.18015319 31.99568177 -25.20191085 28.39213194 -25.21655273 24.78710938 C-25.23922211 23.67850052 -25.26189148 22.56989166 -25.2852478 21.4276886 C-25.26915107 15.49279945 -24.69750931 11.25113639 -21.45205688 6.22685242 C-14.90905413 -0.13139511 -8.74094125 -0.05961426 0 0 Z " fill="#C8E2F0" transform="translate(597.693115234375,458.482421875)"/>
<path d="M0 0 C1.91891052 -0.00505302 1.91891052 -0.00505302 3.87658691 -0.01020813 C6.57330209 -0.01451979 9.26881318 0.002143 11.96533203 0.03442383 C15.40203657 0.07420686 18.83648582 0.06489164 22.27326202 0.04018879 C25.5782192 0.02250258 28.8825442 0.04401454 32.1875 0.0625 C33.41166626 0.0555159 34.63583252 0.0485318 35.89709473 0.04133606 C42.98630672 0.15790484 48.32122697 0.72691972 53.59375 5.76171875 C58.63348728 11.88478738 58.19172654 18.16594306 58.16015625 25.8515625 C58.16635483 27.11005508 58.17255341 28.36854767 58.17893982 29.66517639 C58.18602919 32.32089179 58.18483853 34.97508468 58.17016602 37.63061523 C58.15298861 41.01456329 58.17647567 44.39681152 58.21165562 47.78057003 C58.2390411 51.03341939 58.2288859 54.2861305 58.22265625 57.5390625 C58.23591446 58.74449203 58.24917267 59.94992157 58.26283264 61.19187927 C58.18560176 68.20443688 57.70748621 73.63047724 52.59375 78.76171875 C46.03863456 84.1890089 39.41508387 84.4889769 31.18359375 84.390625 C29.43327599 84.39424294 29.43327599 84.39424294 27.64759827 84.39793396 C25.19268376 84.39695888 22.73774634 84.38364698 20.28295898 84.35864258 C16.53878695 84.32428791 12.79697212 84.33801659 9.05273438 84.35742188 C6.65884419 84.35052386 4.26496005 84.3408519 1.87109375 84.328125 C0.20360329 84.3355648 0.20360329 84.3355648 -1.49757385 84.34315491 C-8.6451122 84.23550456 -14.53497856 83.36175486 -19.92420959 78.35011292 C-24.01515674 73.75013759 -25.64659583 69.44661602 -25.69677734 63.36401367 C-25.70953705 62.30909225 -25.72229675 61.25417084 -25.73544312 60.1672821 C-25.73766876 59.03700089 -25.73989441 57.90671967 -25.7421875 56.7421875 C-25.7488443 55.5696492 -25.7555011 54.3971109 -25.76235962 53.18904114 C-25.77247608 50.71027188 -25.77717695 48.23147543 -25.77685547 45.75268555 C-25.78122214 41.97333522 -25.81753692 38.19515896 -25.85546875 34.41601562 C-25.86133847 32.00391023 -25.86530682 29.5917993 -25.8671875 27.1796875 C-25.88155853 26.05547897 -25.89592957 24.93127045 -25.91073608 23.772995 C-25.86633293 16.09223094 -24.96207536 10.8104185 -19.83248901 4.96981812 C-13.92411287 -0.36693473 -7.6281272 -0.09522922 0 0 Z " fill="#C7E1EF" transform="translate(514.40625,375.23828125)"/>
<path d="M0 0 C1.91891052 -0.00505302 1.91891052 -0.00505302 3.87658691 -0.01020813 C6.57330209 -0.01451979 9.26881318 0.002143 11.96533203 0.03442383 C15.40203657 0.07420686 18.83648582 0.06489164 22.27326202 0.04018879 C25.5782192 0.02250258 28.8825442 0.04401454 32.1875 0.0625 C33.41166626 0.0555159 34.63583252 0.0485318 35.89709473 0.04133606 C44.87584876 0.18897481 49.7676391 1.90796473 56.06054688 8.24633789 C58.45662541 13.74014917 58.16379147 19.07848357 58.125 25.0078125 C58.13074036 26.93452538 58.13074036 26.93452538 58.13659668 28.90016174 C58.14247615 31.61275585 58.13398159 34.32482116 58.11523438 37.03735352 C58.09246718 40.49857766 58.10556147 43.95855939 58.12952423 47.41973782 C58.14753397 50.7408597 58.13488753 54.06165542 58.125 57.3828125 C58.13309692 58.61841415 58.14119385 59.85401581 58.14953613 61.12705994 C58.0761508 67.88627663 57.71204262 72.30403211 53.59375 77.76171875 C48.94603966 82.17108497 44.57833251 83.99959218 38.19604492 84.05224609 C37.1411235 84.0650058 36.08620209 84.0777655 34.99931335 84.09091187 C33.86903214 84.09313751 32.73875092 84.09536316 31.57421875 84.09765625 C30.40168045 84.10431305 29.22914215 84.11096985 28.02107239 84.11782837 C25.54230313 84.12794483 23.06350668 84.1326457 20.5847168 84.13232422 C16.80536647 84.13669089 13.02719021 84.17300567 9.24804688 84.2109375 C6.83594148 84.21680722 4.42383055 84.22077557 2.01171875 84.22265625 C0.32540596 84.2442128 0.32540596 84.2442128 -1.39497375 84.26620483 C-9.24299575 84.22083475 -14.95473587 83.21323288 -20.71875 77.44921875 C-25.34195298 70.08633993 -25.86280903 64.35585909 -25.83984375 55.765625 C-25.84770653 54.04435646 -25.84770653 54.04435646 -25.85572815 52.28831482 C-25.8621337 49.868569 -25.86083044 47.44879198 -25.85229492 45.02905273 C-25.84378586 41.33976458 -25.8725682 37.65202604 -25.90429688 33.96289062 C-25.90590915 31.60546921 -25.90533085 29.24804507 -25.90234375 26.890625 C-25.91357773 25.79456436 -25.92481171 24.69850372 -25.93638611 23.56922913 C-25.86782927 15.98414865 -24.89589798 10.737919 -19.83262634 4.96868896 C-13.92231807 -0.36578035 -7.62873908 -0.09523686 0 0 Z " fill="#C7E1EF" transform="translate(754.40625,375.23828125)"/>
<path d="M0 0 C1.28068863 -0.00478363 2.56137726 -0.00956726 3.88087463 -0.01449585 C6.58340848 -0.02183831 9.28511209 -0.01125109 11.98754883 0.01220703 C15.43207538 0.04066747 18.8746513 0.02429581 22.3191061 -0.00565529 C25.62955538 -0.02819138 28.9394955 -0.01235617 32.25 0 C33.47730331 -0.01012115 34.70460663 -0.02024231 35.96910095 -0.03067017 C43.07114218 0.06598902 48.4124907 0.61261795 53.69140625 5.6640625 C58.68660421 11.75529707 58.27483011 17.89567665 58.22265625 25.53515625 C58.22839661 27.38960106 58.22839661 27.38960106 58.23425293 29.2815094 C58.23696849 31.88958554 58.22963246 34.49768907 58.21289062 37.10571289 C58.19149654 41.08476903 58.21269757 45.06201574 58.23828125 49.04101562 C58.23563756 51.58073313 58.23051173 54.12044952 58.22265625 56.66015625 C58.23075317 57.84371201 58.2388501 59.02726776 58.24719238 60.24668884 C58.16897806 67.18180682 57.42905504 71.76975942 53.69140625 77.6640625 C51.65625 79.50390625 51.65625 79.50390625 49.62890625 80.6015625 C48.95730469 80.98183594 48.28570312 81.36210937 47.59375 81.75390625 C44.17073 83.39161397 41.44899364 83.79656266 37.7043457 83.82519531 C36.68931473 83.83480286 35.67428375 83.8444104 34.62849426 83.85430908 C33.53163803 83.85855896 32.4347818 83.86280884 31.3046875 83.8671875 C30.1737114 83.87288757 29.04273529 83.87858765 27.87748718 83.88446045 C25.48091569 83.89391353 23.08433118 83.90044565 20.68774414 83.90429688 C17.03573629 83.91397812 13.38429703 83.94498938 9.73242188 83.9765625 C7.40234709 83.98309513 5.07226828 83.98834458 2.7421875 83.9921875 C1.11208488 84.0107077 1.11208488 84.0107077 -0.5509491 84.02960205 C-7.51064855 84.00933923 -13.67734113 83.5592504 -19.33203125 79.05078125 C-19.77804688 78.49003906 -20.2240625 77.92929687 -20.68359375 77.3515625 C-21.14507812 76.79855469 -21.6065625 76.24554688 -22.08203125 75.67578125 C-25.94890654 69.33361319 -25.64540368 62.73978203 -25.6796875 55.546875 C-25.68871597 54.37575165 -25.69774445 53.2046283 -25.70704651 51.99801636 C-25.72152787 49.52523344 -25.73043047 47.05241239 -25.73413086 44.57958984 C-25.74603111 40.80891047 -25.79524493 37.03986583 -25.84570312 33.26953125 C-25.85516761 30.86198712 -25.86240252 28.45443298 -25.8671875 26.046875 C-25.88671982 24.92580353 -25.90625214 23.80473206 -25.92637634 22.64968872 C-25.8800134 14.55488033 -24.26803728 10.04786882 -18.88803101 4.09124756 C-13.47850508 -0.71334009 -6.86427119 -0.05651411 0 0 Z " fill="#C7E1EF" transform="translate(274.30859375,375.3359375)"/>
<path d="M0 0 C0.86745346 -0.00686325 1.73490692 -0.0137265 2.62864685 -0.02079773 C5.48445188 -0.03903782 8.33970608 -0.03523221 11.19555664 -0.02954102 C13.18803587 -0.03410416 15.18051352 -0.03941013 17.17298889 -0.04542542 C21.34488324 -0.05435105 25.5165861 -0.05193959 29.68847656 -0.04199219 C35.02607979 -0.03050341 40.36302136 -0.05071557 45.70053768 -0.07990932 C49.81417517 -0.09828413 53.92765447 -0.09797629 58.04132271 -0.0922718 C60.00884492 -0.09211875 61.97637795 -0.09815024 63.94386101 -0.11056328 C66.69866937 -0.12549556 69.45226013 -0.11477991 72.20703125 -0.09765625 C73.01400452 -0.10732422 73.82097778 -0.11699219 74.65240479 -0.12695312 C80.2681152 -0.05411772 83.5294263 1.20881596 88.16821289 4.40405273 C91.68779483 8.49482851 91.650045 12.77860884 91.67211914 17.95874023 C91.68210434 18.77851349 91.69208954 19.59828674 91.70237732 20.44290161 C91.71752429 22.17257663 91.72460417 23.9023388 91.72412109 25.63208008 C91.73067687 28.26458696 91.78516966 30.89330738 91.84204102 33.52514648 C91.85084566 35.21133159 91.85679815 36.8975345 91.85961914 38.58374023 C91.88117569 39.36312958 91.90273224 40.14251892 91.92494202 40.94552612 C91.8579354 46.34765584 90.40385759 49.12848635 86.74937439 53.0852356 C82.93367089 56.26784229 78.14831512 55.55896069 73.46166992 55.56518555 C72.57193481 55.57015045 71.68219971 55.57511536 70.76550293 55.58023071 C67.81900258 55.59484859 64.87255606 55.60165344 61.92602539 55.60717773 C59.87962848 55.61292914 57.83323159 55.61868688 55.78683472 55.62445068 C51.49452462 55.63495936 47.20223326 55.64080302 42.90991211 55.64428711 C37.40962135 55.64977399 31.90957787 55.6738068 26.4093647 55.70225906 C22.18174516 55.72088067 17.95418526 55.72609077 13.72652817 55.72762299 C11.69873578 55.73065071 9.67094447 55.73868326 7.64319229 55.75180817 C4.80645153 55.76885984 1.97031611 55.76699061 -0.86645508 55.76049805 C-1.70403351 55.76971283 -2.54161194 55.77892761 -3.40457153 55.78842163 C-8.05254741 55.75509179 -11.04666935 55.39244667 -14.83178711 52.40405273 C-18.93655964 47.61691013 -19.42729628 43.96319619 -19.36303711 37.93530273 C-19.36686401 37.1367688 -19.37069092 36.33823486 -19.37463379 35.51550293 C-19.37734422 33.83462252 -19.37004399 32.1536993 -19.35327148 30.47290039 C-19.33184711 27.91122727 -19.35310032 25.35235817 -19.37866211 22.79077148 C-19.37601868 21.15144243 -19.37089337 19.5121151 -19.36303711 17.87280273 C-19.37113403 17.11326294 -19.37923096 16.35372314 -19.38757324 15.57116699 C-19.29788505 10.4428934 -18.33712429 7.38300511 -14.83178711 3.40405273 C-9.81097451 0.22850135 -5.74667946 -0.03197727 0 0 Z " fill="#C7E1EF" transform="translate(614.831787109375,605.595947265625)"/>
<path d="M0 0 C0.89773636 -0.0065712 1.79547272 -0.0131424 2.72041321 -0.01991272 C5.70000283 -0.03967003 8.67954198 -0.05131422 11.65917969 -0.0612793 C12.67588493 -0.06535482 13.69259018 -0.06943035 14.74010468 -0.07362938 C20.12214455 -0.09450129 25.50415885 -0.10879771 30.88623047 -0.11816406 C36.44593696 -0.12922603 42.00524295 -0.16362047 47.56480789 -0.20333576 C51.83879338 -0.22948181 56.11268321 -0.23785416 60.38674164 -0.24144554 C62.43604993 -0.24631732 64.48535379 -0.25794807 66.53458405 -0.27648354 C69.40488895 -0.3008301 72.27415471 -0.29991796 75.14453125 -0.29296875 C75.98943619 -0.30577881 76.83434113 -0.31858887 77.70484924 -0.33178711 C83.05808635 -0.2846071 86.07188813 0.64148814 90.33105469 4.17700195 C93.77348029 8.31627117 93.77041445 12.40899447 93.72949219 17.58325195 C93.73236237 18.38557251 93.73523254 19.18789307 93.7381897 20.01452637 C93.74022507 21.70557361 93.73473209 23.39664469 93.72216797 25.08764648 C93.70610603 27.66875093 93.72203373 30.24828967 93.74121094 32.8293457 C93.73922841 34.47648456 93.73538454 36.12362244 93.72949219 37.77075195 C93.73556488 38.53859009 93.74163757 39.30642822 93.74789429 40.09753418 C93.68845956 44.64951244 93.33230982 47.68613691 90.33105469 51.17700195 C84.85586718 54.94589206 80.95350051 55.76060751 74.38574219 55.69458008 C73.08434296 55.70509399 73.08434296 55.70509399 71.75665283 55.71582031 C68.90612199 55.733338 66.05659456 55.72179981 63.20605469 55.70825195 C61.21500458 55.71094866 59.22395577 55.71483257 57.23291016 55.71984863 C53.06692932 55.72573525 48.90129233 55.71720761 44.73535156 55.69848633 C39.40559517 55.67569742 34.07664458 55.68882497 28.74691772 55.71277618 C24.6375526 55.72725671 20.52837731 55.72261781 16.41900635 55.71226501 C14.45428369 55.70960397 12.48954358 55.71284552 10.52484131 55.72218323 C7.77488806 55.73238596 5.02622479 55.71679599 2.27636719 55.69458008 C1.47096497 55.702677 0.66556274 55.71077393 -0.16424561 55.71911621 C-5.76711067 55.63560932 -9.05713278 54.39894436 -13.66894531 51.17700195 C-16.87301846 46.59969597 -17.14885566 42.18019984 -17.17285156 36.7434082 C-17.18283676 35.94724594 -17.19282196 35.15108368 -17.20310974 34.33079529 C-17.21823365 32.65417649 -17.22533731 30.97746819 -17.22485352 29.30078125 C-17.2314195 26.74953324 -17.28596314 24.20217254 -17.34277344 21.65161133 C-17.35157659 20.01555681 -17.35753008 18.37948397 -17.36035156 16.7434082 C-17.38190811 15.98902969 -17.40346466 15.23465118 -17.42567444 14.45741272 C-17.35701081 9.09464485 -15.81066261 6.39430028 -12.15245056 2.50474548 C-8.5925047 -0.68142126 -4.5143615 0.01423055 0 0 Z " fill="#C7E1EF" transform="translate(372.6689453125,444.822998046875)"/>
<path d="M0 0 C0.87078186 -0.00570007 1.74156372 -0.01140015 2.63873291 -0.01727295 C4.48472883 -0.02672943 6.33074168 -0.0332595 8.17675781 -0.03710938 C10.99053802 -0.0467887 13.80357963 -0.07779469 16.6171875 -0.109375 C18.411454 -0.11590777 20.20572572 -0.12115716 22 -0.125 C22.83770935 -0.1373468 23.6754187 -0.1496936 24.53851318 -0.16241455 C29.50397237 -0.14364464 33.05907518 0.2823798 37.265625 3.203125 C41.61178367 8.06038323 41.85777385 12.12189598 41.796875 18.328125 C41.8007019 19.19324707 41.80452881 20.05836914 41.80847168 20.94970703 C41.81118365 22.77182179 41.80387266 24.59397596 41.78710938 26.41601562 C41.76568841 29.19489869 41.78693422 31.97119673 41.8125 34.75 C41.8098566 36.52604734 41.80473135 38.30209307 41.796875 40.078125 C41.80497192 40.90328613 41.81306885 41.72844727 41.82141113 42.57861328 C41.73553117 47.89823213 40.88434505 51.04795374 37.265625 55.203125 C32.91883157 58.88857719 28.49775828 58.68562929 23.0546875 58.70703125 C21.72514542 58.72200905 21.72514542 58.72200905 20.3687439 58.73728943 C18.49782972 58.75244299 16.62683486 58.75951608 14.75585938 58.7590332 C11.90618101 58.76558921 9.05999899 58.82008022 6.2109375 58.87695312 C4.38803268 58.88575744 2.5651114 58.89171015 0.7421875 58.89453125 C-0.10282318 58.9160878 -0.94783386 58.93764435 -1.81845093 58.95985413 C-7.41865328 58.8955787 -10.34097725 57.6094661 -14.43862915 53.7842865 C-18.77161094 48.49687309 -17.08404794 38.40089102 -17.1394043 31.84423828 C-17.16097306 29.92380783 -17.1950628 28.0034754 -17.24194336 26.08349609 C-17.30911729 23.30522056 -17.33643017 20.52897423 -17.35546875 17.75 C-17.38329941 16.89871521 -17.41113007 16.04743042 -17.43980408 15.17034912 C-17.42037661 9.4941432 -16.15124044 6.60499448 -12.22035217 2.49639893 C-8.61795243 -0.63883743 -4.5244883 0.02273396 0 0 Z " fill="#C8E2F0" transform="translate(278.734375,523.796875)"/>
<path d="M0 0 C1.26438904 -0.00218285 1.26438904 -0.00218285 2.55432129 -0.00440979 C4.32938101 -0.00275617 6.10445587 0.00874473 7.87939453 0.02954102 C10.5855849 0.05850636 13.28981474 0.05013688 15.99609375 0.03710938 C17.72657195 0.04334744 19.45704401 0.05173892 21.1875 0.0625 C21.99078735 0.05956436 22.79407471 0.05662872 23.6217041 0.05360413 C29.74420862 0.15565397 33.77203014 1.40869808 38.43774414 5.60351562 C40.77865359 9.69242837 40.65072636 13.14186007 40.58984375 17.77734375 C40.59129898 18.66844849 40.59275421 19.55955322 40.59425354 20.47766113 C40.59259748 22.35704832 40.58106907 24.23644947 40.56030273 26.11572266 C40.53134585 28.98659073 40.53970025 31.8556111 40.55273438 34.7265625 C40.54649648 36.55599853 40.53810514 38.38542874 40.52734375 40.21484375 C40.53027939 41.070177 40.53321503 41.92551025 40.53623962 42.8067627 C40.43880152 48.98555295 39.24548045 52.15838963 34.99780273 56.77319336 C30.87066655 59.22171796 27.34814334 59.08927909 22.62890625 59.0625 C21.71797714 59.06869858 20.80704803 59.07489716 19.86851501 59.08128357 C17.94628974 59.0883721 16.02400294 59.08522462 14.10180664 59.07250977 C11.16892865 59.05865365 8.23924887 59.09271603 5.30664062 59.13085938 C3.43489506 59.13181075 1.56314551 59.12995079 -0.30859375 59.125 C-1.1806395 59.13825821 -2.05268524 59.15151642 -2.95115662 59.16517639 C-7.14175453 59.10145868 -10.02554348 58.85240629 -13.38110352 56.20678711 C-18.05339682 51.19117534 -18.21458932 47.53221589 -18.20703125 40.78515625 C-18.21131638 39.93940033 -18.2156015 39.09364441 -18.22001648 38.22225952 C-18.22575193 36.43529148 -18.22626582 34.6483001 -18.22192383 32.86132812 C-18.21876913 30.1376119 -18.24221385 27.41498785 -18.26757812 24.69140625 C-18.26985184 22.95182428 -18.27055428 21.2122394 -18.26953125 19.47265625 C-18.278741 18.66309479 -18.28795074 17.85353333 -18.29743958 17.0194397 C-18.25776042 12.13059603 -17.76345611 8.64388182 -14.90625 4.49609375 C-10.08737205 0.20265952 -6.1454634 -0.08594434 0 0 Z " fill="#C8E2F0" transform="translate(759.90625,523.50390625)"/>
<path d="M0 0 C0.82214493 -0.00428513 1.64428986 -0.00857025 2.49134827 -0.01298523 C4.22526125 -0.01871247 5.95919825 -0.01924066 7.69311523 -0.01489258 C10.3355435 -0.01173323 12.97685063 -0.03520884 15.61914062 -0.06054688 C17.30859235 -0.06282021 18.99804706 -0.0635232 20.6875 -0.0625 C21.86432594 -0.07631462 21.86432594 -0.07631462 23.06492615 -0.09040833 C27.89096153 -0.0500153 31.31060685 0.49337252 35.41015625 3.30078125 C39.70359048 8.1196592 39.99219434 12.06156785 39.90625 18.20703125 C39.90770523 19.04995728 39.90916046 19.8928833 39.91065979 20.76135254 C39.90900617 22.53641226 39.89750527 24.31148712 39.87670898 26.08642578 C39.84774364 28.79261615 39.85611312 31.49684599 39.86914062 34.203125 C39.86290256 35.9336032 39.85451108 37.66407526 39.84375 39.39453125 C39.84668564 40.1978186 39.84962128 41.00110596 39.85264587 41.82873535 C39.77167916 46.6863524 39.23887657 50.17785318 36.41015625 54.30078125 C31.51573315 58.69906112 27.33202063 58.90387622 21.06640625 58.8671875 C20.17908813 58.87338608 19.29177002 58.87958466 18.37756348 58.88597107 C16.50839328 58.89305001 14.63915977 58.88992895 12.77001953 58.87719727 C9.91841164 58.86332142 7.07008166 58.89744061 4.21875 58.93554688 C2.39713462 58.93649809 0.57551515 58.9346391 -1.24609375 58.9296875 C-2.09312866 58.94294571 -2.94016357 58.95620392 -3.81286621 58.96986389 C-7.9462162 58.90519261 -10.74259208 58.61854984 -14.04882812 56.01147461 C-17.32921878 52.51203404 -18.82333529 49.98415277 -18.89624023 45.17822266 C-18.91222763 44.3770401 -18.92821503 43.57585754 -18.94468689 42.75039673 C-18.95004959 41.89303925 -18.95541229 41.03568176 -18.9609375 40.15234375 C-18.96996597 39.26219574 -18.97899445 38.37204773 -18.98829651 37.45492554 C-19.00278742 35.57382565 -19.01168287 33.6926755 -19.01538086 31.81152344 C-19.02727448 28.94249024 -19.07646731 26.07561056 -19.12695312 23.20703125 C-19.13641832 21.37631254 -19.14365289 19.54558067 -19.1484375 17.71484375 C-19.16796982 16.86153473 -19.18750214 16.00822571 -19.20762634 15.12905884 C-19.17664854 11.0133484 -18.93009231 8.1582715 -16.36743164 4.83740234 C-11.22627225 0.14225898 -6.76234685 -0.00783556 0 0 Z " fill="#C8E2F0" transform="translate(520.58984375,523.69921875)"/>
<path d="M0 0 C1.28821152 -0.00630432 2.57642303 -0.01260864 3.90367126 -0.019104 C5.31151465 -0.01552384 6.71935679 -0.01142178 8.12719727 -0.00683594 C9.57064377 -0.0081833 11.01408984 -0.01012444 12.45753479 -0.01263428 C15.48296427 -0.01558312 18.50827565 -0.01129631 21.53369141 -0.00195312 C25.40861402 0.00943115 29.28325926 0.00288707 33.15817165 -0.00909805 C36.13932884 -0.01633189 39.12042049 -0.01402156 42.10157967 -0.00884247 C43.53010147 -0.00750965 44.95862926 -0.0091408 46.38714409 -0.01380157 C48.38569904 -0.0188904 50.38427488 -0.00975668 52.3828125 0 C53.51959946 0.00159119 54.65638641 0.00318237 55.82762146 0.00482178 C58.73936685 0.25733761 60.3553913 0.63021093 62.75610352 2.25878906 C66.12298811 7.30911595 65.16688252 13.20172825 65.19360352 19.13378906 C65.22647461 20.41382813 65.2593457 21.69386719 65.29321289 23.01269531 C65.35355405 33.5120572 65.35355405 33.5120572 62.35375977 36.57910156 C58.47495235 39.0872026 56.4617133 39.3974738 51.84106445 39.45166016 C49.97837921 39.47575455 49.97837921 39.47575455 48.07806396 39.50033569 C46.71554245 39.51182397 45.35301327 39.52243237 43.99047852 39.53222656 C43.30475014 39.53755024 42.61902176 39.54287392 41.91251373 39.54835892 C38.28112404 39.57508805 34.64976866 39.59446138 31.01831055 39.60888672 C28.01702309 39.62221386 25.01641752 39.65004193 22.01538086 39.69091797 C18.38847423 39.74031749 14.76218503 39.76501667 11.13495636 39.7721138 C9.75546786 39.77881437 8.37599248 39.7940057 6.99669647 39.81800461 C-5.14755697 40.01720691 -5.14755697 40.01720691 -9.07495117 36.85107422 C-13.41399644 31.6651239 -12.46468228 26.47931469 -12.49389648 19.94628906 C-12.51452148 18.80482422 -12.53514648 17.66335938 -12.55639648 16.48730469 C-12.56413086 14.83311523 -12.56413086 14.83311523 -12.57202148 13.14550781 C-12.58604004 11.63283325 -12.58604004 11.63283325 -12.6003418 10.08959961 C-12.18217032 6.76857337 -11.22306549 4.93855143 -9.24389648 2.25878906 C-5.69935584 -0.10423803 -4.20143632 0.00588496 0 0 Z " fill="#C6DFED" transform="translate(384.243896484375,561.7412109375)"/>
<path d="M0 0 C1.30485352 -0.01260864 2.60970703 -0.02521729 3.95410156 -0.03820801 C5.37044822 -0.03104798 6.78678994 -0.02284394 8.203125 -0.01367188 C9.66373961 -0.01636844 11.12435246 -0.02025223 12.58496094 -0.02526855 C15.64145044 -0.031156 18.69747136 -0.02262568 21.75390625 -0.00390625 C25.66482849 0.01888372 29.57465268 0.00575647 33.48553467 -0.01819611 C36.50024638 -0.03267499 39.51469928 -0.02803871 42.52941895 -0.01768494 C43.97107067 -0.01502338 45.41274616 -0.01826732 46.85437012 -0.02760315 C48.87165862 -0.03780111 50.8890299 -0.01949216 52.90625 0 C54.05254883 0.00318237 55.19884766 0.00636475 56.37988281 0.00964355 C60.12723612 0.62899282 61.8037883 1.83567337 64.453125 4.51757812 C65.10009766 7.55444336 65.10009766 7.55444336 65.1171875 11.07617188 C65.12363281 12.34912109 65.13007812 13.62207031 65.13671875 14.93359375 C65.12624512 15.59399658 65.11577148 16.25439941 65.10498047 16.93481445 C65.07823573 18.94674856 65.10471181 20.95308429 65.13671875 22.96484375 C65.13027344 24.23908203 65.12382813 25.51332031 65.1171875 26.82617188 C65.11154785 27.98947021 65.1059082 29.15276855 65.10009766 30.35131836 C64.24821931 34.52037885 62.72360936 35.84698235 59.453125 38.51757812 C56.37988281 39.15249634 56.37988281 39.15249634 52.90625 39.16455078 C50.94896973 39.18819199 50.94896973 39.18819199 48.95214844 39.21231079 C47.53579867 39.20336073 46.11945664 39.19310567 44.703125 39.18164062 C43.24250892 39.18501133 41.78189557 39.18986608 40.32128906 39.19613647 C37.26470148 39.20349602 34.20884601 39.1928334 31.15234375 39.16943359 C27.24120816 39.14094457 23.33178802 39.15735373 19.42071533 39.18729591 C16.40595659 39.2053948 13.39160222 39.19959939 10.37683105 39.18665695 C8.93517858 39.18333001 7.49348897 39.18738505 6.05187988 39.19905472 C4.03459408 39.21180215 2.01717894 39.18891548 0 39.16455078 C-1.14629883 39.16057281 -2.29259766 39.15659485 -3.47363281 39.15249634 C-7.50093921 38.32047269 -9.00667835 36.68494005 -11.546875 33.51757812 C-12.19384766 30.35131836 -12.19384766 30.35131836 -12.2109375 26.82617188 C-12.21738281 25.55193359 -12.22382812 24.27769531 -12.23046875 22.96484375 C-12.21999512 22.30653564 -12.20952148 21.64822754 -12.19873047 20.9699707 C-12.17188648 18.95593964 -12.19852999 16.94745517 -12.23046875 14.93359375 C-12.22402344 13.66064453 -12.21757813 12.38769531 -12.2109375 11.07617188 C-12.20529785 9.91400146 -12.1996582 8.75183105 -12.19384766 7.55444336 C-11.546875 4.51757812 -11.546875 4.51757812 -9.4156189 2.36012268 C-5.97834734 0.15242265 -4.05907892 0.01126888 0 0 Z " fill="#C8E2F0" transform="translate(624.546875,723.482421875)"/>
<path d="M0 0 C1.28068359 -0.00257813 2.56136719 -0.00515625 3.88085938 -0.0078125 C4.88064819 -0.00152832 4.88064819 -0.00152832 5.90063477 0.00488281 C7.9308067 0.01556921 9.96009023 0.00498821 11.99023438 -0.0078125 C13.27220703 -0.00523437 14.55417969 -0.00265625 15.875 0 C17.0498999 0.00225586 18.2247998 0.00451172 19.43530273 0.00683594 C22.42002952 0.2585513 24.05490558 0.58938592 26.50390625 2.265625 C29.68080328 7.03097054 28.91443729 12.46154495 28.92944336 18.03466797 C28.94132983 20.12717159 28.99050497 22.21671347 29.04101562 24.30859375 C29.05048209 25.645819 29.05771606 26.9830623 29.0625 28.3203125 C29.07595459 29.53187012 29.08940918 30.74342773 29.10327148 31.99169922 C28.33900562 36.16636528 26.73394696 37.61132253 23.50390625 40.265625 C19.07058457 42.48228584 13.12195445 41.5851343 8.25390625 41.640625 C7.02542969 41.67800781 5.79695313 41.71539063 4.53125 41.75390625 C-5.62061412 41.85289517 -5.62061412 41.85289517 -9.29296875 38.8671875 C-13.83995062 33.49787912 -12.71807436 27.73731986 -12.74609375 20.953125 C-12.76671875 19.71626953 -12.78734375 18.47941406 -12.80859375 17.20507812 C-12.81375 16.01205078 -12.81890625 14.81902344 -12.82421875 13.58984375 C-12.83356445 12.49760498 -12.84291016 11.40536621 -12.85253906 10.2800293 C-12.44653743 6.84653467 -11.55536494 5.02006609 -9.49609375 2.265625 C-5.90746612 -0.12679342 -4.26246641 0.00819199 0 0 Z " fill="#C6DFED" transform="translate(282.49609375,641.734375)"/>
<path d="M0 0 C1.31484375 -0.00644531 2.6296875 -0.01289062 3.984375 -0.01953125 C5.0043457 -0.0038208 5.0043457 -0.0038208 6.04492188 0.01220703 C8.12034681 0.03900242 10.19036676 0.01243363 12.265625 -0.01953125 C14.23789062 -0.00986328 14.23789062 -0.00986328 16.25 0 C17.44882812 0.00563965 18.64765625 0.0112793 19.8828125 0.01708984 C24.12646463 0.86390296 25.58540539 2.19083657 28.125 5.6640625 C28.77197266 8.90625 28.77197266 8.90625 28.7890625 12.5390625 C28.79873047 14.51132812 28.79873047 14.51132812 28.80859375 16.5234375 C28.79812012 17.20341797 28.78764648 17.88339844 28.77685547 18.58398438 C28.75006008 20.65940931 28.77662887 22.72942926 28.80859375 24.8046875 C28.80214844 26.11953125 28.79570313 27.434375 28.7890625 28.7890625 C28.78060303 30.58730469 28.78060303 30.58730469 28.77197266 32.421875 C27.948944 36.54633558 26.32228638 38.02453369 23.125 40.6640625 C18.6865003 42.88331235 12.68634797 41.93881974 7.8125 41.9765625 C6.57564453 42.00556641 5.33878906 42.03457031 4.06445312 42.06445312 C2.87142578 42.07283203 1.67839844 42.08121094 0.44921875 42.08984375 C-0.64302002 42.10442627 -1.73525879 42.11900879 -2.8605957 42.1340332 C-6.56869592 41.55590954 -8.20654986 40.24774268 -10.875 37.6640625 C-13.01897664 33.37610922 -12.18412101 27.72873328 -12.22509766 22.97045898 C-12.24163807 21.56306398 -12.26890393 20.15575234 -12.30712891 18.7487793 C-12.36210174 16.71358955 -12.38379877 14.68036491 -12.3984375 12.64453125 C-12.41825684 11.42660889 -12.43807617 10.20868652 -12.45849609 8.95385742 C-11.18947185 1.79900317 -6.74233585 0.03171798 0 0 Z " fill="#C7E0EE" transform="translate(522.875,641.3359375)"/>
<path d="M0 0 C1.31484375 -0.00644531 2.6296875 -0.01289062 3.984375 -0.01953125 C5.0043457 -0.0038208 5.0043457 -0.0038208 6.04492188 0.01220703 C8.12034681 0.03900242 10.19036676 0.01243363 12.265625 -0.01953125 C14.23789062 -0.00986328 14.23789062 -0.00986328 16.25 0 C17.44882812 0.00563965 18.64765625 0.0112793 19.8828125 0.01708984 C24.12646463 0.86390296 25.58540539 2.19083657 28.125 5.6640625 C28.77197266 8.90625 28.77197266 8.90625 28.7890625 12.5390625 C28.79873047 14.51132812 28.79873047 14.51132812 28.80859375 16.5234375 C28.79812012 17.20341797 28.78764648 17.88339844 28.77685547 18.58398438 C28.75006008 20.65940931 28.77662887 22.72942926 28.80859375 24.8046875 C28.80214844 26.11953125 28.79570313 27.434375 28.7890625 28.7890625 C28.78060303 30.58730469 28.78060303 30.58730469 28.77197266 32.421875 C27.948944 36.54633558 26.32228638 38.02453369 23.125 40.6640625 C18.6865003 42.88331235 12.68634797 41.93881974 7.8125 41.9765625 C6.57564453 42.00556641 5.33878906 42.03457031 4.06445312 42.06445312 C2.87142578 42.07283203 1.67839844 42.08121094 0.44921875 42.08984375 C-0.64302002 42.10442627 -1.73525879 42.11900879 -2.8605957 42.1340332 C-6.56869592 41.55590954 -8.20654986 40.24774268 -10.875 37.6640625 C-13.01897664 33.37610922 -12.18412101 27.72873328 -12.22509766 22.97045898 C-12.24163807 21.56306398 -12.26890393 20.15575234 -12.30712891 18.7487793 C-12.36210174 16.71358955 -12.38379877 14.68036491 -12.3984375 12.64453125 C-12.41825684 11.42660889 -12.43807617 10.20868652 -12.45849609 8.95385742 C-11.18947185 1.79900317 -6.74233585 0.03171798 0 0 Z " fill="#C7E0EE" transform="translate(762.875,641.3359375)"/>
</svg>
