<?xml version="1.0" encoding="UTF-8"?>
<svg id="Layer_1" xmlns="http://www.w3.org/2000/svg" version="1.1" viewBox="0 0 184 184">
  <!-- Generator: Adobe Illustrator 30.2.1, SVG Export Plug-In . SVG Version: 2.1.1 Build 1)  -->
  <defs>
    <style>
      .st0 {
        fill: #03a578;
      }

      .st1 {
        fill: #fff;
      }
    </style>
  </defs>
  <rect width="184" height="184" fill="#D1EDE5"/>
  <path class="st0" d="M133.26,34.13c16.06,11.28,19.93,33.44,8.65,49.5-.1.14-.2.27-.3.41,15.72,11.37,19.44,33.29,8.25,49.21-11.19,15.92-33.07,19.86-49.1,8.93-11.36,15.72-33.29,19.44-49.21,8.25s-19.86-33.07-8.93-49.09c-.14-.1-.28-.19-.42-.28-16.06-11.28-19.93-33.44-8.65-49.5s33.44-19.93,49.5-8.65c.14.1.27.2.41.3.09-.14.19-.28.29-.42,11.28-16.06,33.44-19.93,49.5-8.65h0ZM91.99,92h0s0-.01,0,0Z"/>
  <path class="st1" d="M86.56,70.48c3.51-.94,7.04-1.29,10.37.45,7.6,3.97,11.01,19.36,4.95,25.8-1.59,1.69-3.27,2.54-5.36,3.25-3.38.93-7.04,1.37-10.42-.22-7.58-3.57-9.36-15.85-6.52-23.07,1.24-3.15,3.99-5.07,6.99-6.21h-.01Z"/>
  <path d="M87.85,72.86c.68-.16,1.39-.2,2.09-.1,1.75.23,5.88,1.66,5.52,4.01-.23,1.47-3.84,2.86-5.21,3.8-.79.35-6.79-.44-7.14-1.76-.75-2.79,2.72-5.04,4.74-5.95Z"/>
  <path class="st1" d="M110.77,70.84c4.7-1.47,7.06,5.38,3.39,8.63-4.41,1.58-6.99-5.01-3.39-8.63Z"/>
  <path class="st1" d="M67.19,78.46c5.3-1.65,8.19,5.76,3.25,8.7-5.13,1.25-7.59-5.39-3.25-8.7Z"/>
</svg>