<svg width="17" height="16" viewBox="0 0 17 16" fill="none" xmlns="http://www.w3.org/2000/svg">
<g filter="url(#filter0_g_893_1130)">
<path d="M7.90436 7.84666C7.97014 7.88399 8.05191 7.88399 8.11769 7.84666L15.0306 4.03955C14.7515 2.99688 13.8075 2.22266 12.6777 2.22266H3.34436C2.21814 2.22266 1.2768 2.99155 0.995026 4.02977L7.90436 7.84666Z" fill="#00956C" style="fill:#00956C;fill:color(display-p3 0.0000 0.5843 0.4235);fill-opacity:1;"/>
<path d="M8.76222 9.01417C8.52755 9.14395 8.26977 9.20884 8.01199 9.20884C7.75422 9.20884 7.49466 9.14395 7.25999 9.01328L0.899994 5.50128V11.3342C0.899994 12.6826 1.99599 13.7786 3.34444 13.7786H12.6778C14.0262 13.7786 15.1222 12.6826 15.1222 11.3342V5.51195L8.76222 9.01417Z" fill="#00956C" style="fill:#00956C;fill:color(display-p3 0.0000 0.5843 0.4235);fill-opacity:1;"/>
</g>
<defs>
<filter id="filter0_g_893_1130" x="-0.889014" y="-0.9" width="17.8" height="17.8" filterUnits="userSpaceOnUse" color-interpolation-filters="sRGB">
<feFlood flood-opacity="0" result="BackgroundImageFix"/>
<feBlend mode="normal" in="SourceGraphic" in2="BackgroundImageFix" result="shape"/>
<feTurbulence type="fractalNoise" baseFrequency="0.12903225421905518 0.12903225421905518" numOctaves="3" seed="842" />
<feDisplacementMap in="shape" scale="1.7999999523162842" xChannelSelector="R" yChannelSelector="G" result="displacedImage" width="100%" height="100%" />
<feMerge result="effect1_texture_893_1130">
<feMergeNode in="displacedImage"/>
</feMerge>
</filter>
</defs>
</svg>
