<svg width="160" height="51" viewBox="0 0 160 51" fill="none" xmlns="http://www.w3.org/2000/svg">
<path fill-rule="evenodd" clip-rule="evenodd" d="M8.93243 19.9683H7.75357V6.80099C7.75357 4.26907 4.79245 2.54769 3.62738 2.19315L2.60128 3.81269C3.19665 4.02824 5.32349 4.78786 5.32349 6.7382V18.2078C3.10859 16.6373 1.52618 14.7142 1.52618 12.0429V1.43353H16.3383V12.0685C16.3383 14.7394 14.7425 16.663 12.5394 18.2331V6.7382C12.5394 4.78786 14.6663 4.02824 15.2617 3.81269L14.2356 2.19315C13.072 2.54769 10.1094 4.2572 10.1094 6.80099V19.9683H8.93243Z" fill="#00956C" style="fill:#00956C;fill:color(display-p3 0.0000 0.5843 0.4235);fill-opacity:1;"/>
<path fill-rule="evenodd" clip-rule="evenodd" d="M21.4915 49.0605H22.2005V46.4267H25.3278V49.0605H26.0488V43.25H25.3144V45.7823H22.2005V43.25H21.4662V49.0605H21.4915ZM29.315 42.8959H29.9732L30.5429 42.0972L31.126 42.8959H31.7842L30.9227 41.6933H30.1512L29.315 42.8959ZM28.2395 46.1622C28.2951 44.8952 29.3583 43.9082 30.6252 43.9473C31.8917 43.9859 32.8926 45.0358 32.87 46.3042C32.8478 47.5707 31.8113 48.585 30.5429 48.5788C29.9131 48.5773 29.312 48.3173 28.8766 47.861C28.4417 47.405 28.2112 46.7916 28.2395 46.1622ZM27.4665 46.1622C27.429 46.9846 27.743 47.7832 28.3295 48.3606C28.9172 48.938 29.7216 49.2385 30.5429 49.1876C31.355 49.2086 32.1387 48.8974 32.7145 48.3261C33.2904 47.7549 33.6089 46.9727 33.594 46.1622C33.6311 45.3394 33.3187 44.5392 32.731 43.9622C32.1448 43.3848 31.34 43.0843 30.5176 43.1363C29.7025 43.108 28.9111 43.4162 28.3295 43.9875C27.7491 44.5602 27.4275 45.3455 27.4409 46.1622H27.4665ZM35.7086 43.7183H36.5819C37.5199 43.7183 37.8488 44.2627 37.8488 44.8834C37.8607 45.2153 37.7294 45.5385 37.4855 45.7659C37.2431 45.9945 36.9142 46.1066 36.5819 46.0722H35.6577V43.7183H35.7086ZM34.949 49.023H35.6714V46.6166H36.5057C37.4943 46.6557 38.6578 46.2502 38.6578 44.9837C38.6789 44.5036 38.4829 44.0384 38.1256 43.7152C37.7696 43.3921 37.2864 43.2443 36.8093 43.3128H34.9999V49.1233L34.949 49.023ZM39.7467 49.023H40.4692V43.2114H39.7976V49.023H39.7467ZM41.5833 43.8201H43.4184V49.023H44.1409V43.8201H45.976V43.2114H41.5833V43.8201ZM45.7486 49.023H46.5082L47.3053 47.0983H49.7105L50.4701 49.023H51.2432L48.913 43.2248H48.2296L45.7486 49.0486V49.023ZM49.4574 46.491H47.5209L48.4961 43.8707L49.4069 46.491H49.4574ZM55.4206 49.023V48.4146H52.8883V43.2114H52.1663V49.023H55.4206ZM62.9283 43.2114V46.7947C62.9283 48.06 62.2059 48.5417 61.3459 48.5417C60.9137 48.6087 60.4772 48.4697 60.1644 48.1661C59.8505 47.8625 59.6977 47.4302 59.7501 46.9964C59.7501 46.4658 59.7501 45.9079 59.7501 45.3635V43.25H59.0415V45.2632C59.0415 45.8451 59.0415 46.3892 59.0415 46.8456C58.9457 47.4739 59.149 48.111 59.5916 48.567C60.0327 49.0245 60.6641 49.2489 61.295 49.1742C61.9321 49.255 62.5707 49.041 63.0287 48.5922C63.4877 48.1424 63.7167 47.5095 63.6493 46.8709V43.25L62.9283 43.2114ZM65.2451 49.0605H65.9794V44.4274L69.0929 49.0486H69.802V43.25H69.0677V47.846L65.9404 43.25H65.2451V49.0605ZM71.5743 49.0605H72.2968V43.25H71.5743V49.0605ZM75.6634 49.0605H76.3349L78.8669 43.25H78.1206L76.0057 48.2006L74.1062 43.25H73.3091L75.6393 49.0605H75.6634ZM79.7792 49.0605H82.8422V48.4533H80.4998V46.4267H82.7028V45.8195H80.5136V43.8573H82.7913V43.25H79.8164V49.0605H79.7792ZM84.1344 49.0605H84.8672V46.5286H85.3232C85.881 46.5286 86.0457 46.8709 86.4121 47.3257L87.6786 49.0096H88.5776L87.3111 47.2629C87.0702 46.9593 86.741 46.4401 86.3493 46.3639C87.1866 46.3042 87.8268 45.5951 87.8046 44.7563C87.8046 43.7945 87.058 43.2248 85.9557 43.2248H84.1715V49.0352L84.1344 49.0605ZM84.8925 43.7183H85.7539C86.69 43.7183 87.0208 44.2627 87.0208 44.8834C87.0208 45.7314 86.2865 45.9841 85.564 45.9841H84.8431V43.7183H84.8925ZM89.2985 48.7193C89.7741 49.026 90.3288 49.1845 90.8943 49.1742C91.3637 49.2205 91.832 49.0681 92.1835 48.7523C92.5349 48.4368 92.7367 47.9881 92.7428 47.5156C92.7428 45.6924 90.1347 45.9841 90.1347 44.7053C90.1347 44.4258 90.2496 44.1578 90.4533 43.9664C90.6566 43.7734 90.9319 43.675 91.2098 43.693C91.6689 43.693 92.1134 43.8439 92.4767 44.1238L92.7547 43.5912C92.2926 43.2994 91.7573 43.1425 91.2098 43.1363C90.7703 43.0858 90.3288 43.2232 89.9938 43.515C89.6588 43.8064 89.4616 44.2237 89.4509 44.6678C89.4509 46.7066 91.9832 46.0978 91.9832 47.5799C91.9874 47.8789 91.8649 48.1661 91.6451 48.3694C91.4254 48.5731 91.129 48.6715 90.83 48.6432C90.3752 48.6282 89.9341 48.4789 89.5646 48.2124L89.2476 48.7316L89.2985 48.7193ZM94.0844 49.0605H94.8054V43.25H94.1097V49.0605H94.0844ZM95.9195 43.8573H97.7561V49.0605H98.4771V43.8573H100.313V43.25H95.8939V43.8573H95.9195ZM100.085 49.0605H100.832L101.63 47.1358H104.034L104.794 49.0605H105.567L103.225 43.25H102.542L100.01 49.0486L100.085 49.0605ZM103.795 46.5286H101.896L102.871 43.9082L103.782 46.5286H103.795ZM106.605 49.0605H107.326V43.25H106.605V49.0605ZM109.036 49.0605H109.77V46.5286H110.226C110.783 46.5286 110.947 46.8709 111.315 47.3257L112.58 49.0096H113.454L112.188 47.2629C111.948 46.9593 111.619 46.4401 111.227 46.3639C112.063 46.3042 112.705 45.5951 112.682 44.7563C112.682 43.7945 111.936 43.2248 110.833 43.2248H109.049V49.0352L109.036 49.0605ZM109.77 43.7183H110.632C111.568 43.7183 111.897 44.2627 111.897 44.8834C111.897 45.7314 111.162 45.9841 110.442 45.9841H109.719V43.7183H109.77ZM114.341 49.023H117.417V48.4146H115.087V46.3892H117.29V45.7823H115.075V43.8573H117.354V43.25H114.366V49.0605L114.341 49.023ZM121.937 43.7692H122.822C123.477 43.6915 124.134 43.9021 124.62 44.3477C125.106 44.7922 125.374 45.4263 125.354 46.086C125.354 47.6802 124.291 48.4651 122.632 48.4651H121.86V43.7692H121.937ZM121.165 49.023H122.773C123.6 49.1011 124.424 48.8273 125.04 48.2679C125.656 47.7101 126.009 46.9172 126.013 46.086C126.03 45.275 125.694 44.4959 125.091 43.953C124.488 43.4116 123.678 43.1589 122.873 43.2623H121.126V49.0739L121.165 49.023ZM127.406 49.023H130.482V48.4146H128.152V46.3892H130.355V45.7823H128.14V43.8573H130.418V43.25H127.432V49.0605L127.406 49.023ZM134.18 49.023H135.811C136.951 49.023 137.685 48.4399 137.685 47.4153C137.725 46.7154 137.226 46.1009 136.534 45.9975C137.172 45.8765 137.616 45.29 137.56 44.6425C137.56 43.9844 137.129 43.2366 135.85 43.2366H134.243V49.0486L134.18 49.023ZM134.875 46.2502H135.558C136.395 46.2502 136.9 46.6166 136.9 47.3257C136.9 48.0344 136.432 48.4533 135.635 48.4533H134.875V46.2502ZM134.875 43.7183H135.457C136.381 43.7183 136.724 44.0728 136.724 44.7187C136.724 45.3635 136.332 45.718 135.382 45.718H134.875V43.7183ZM138.989 49.023H142.066V48.4146H139.737V46.3892H141.94V45.7823H139.724V43.8573H142.003V43.25H139.054V49.0605L138.989 49.023ZM143.344 49.023H144.079V46.491H144.535C145.092 46.491 145.256 46.8322 145.624 47.2882L146.889 48.9724H147.839L146.574 47.2254C146.333 46.9218 146.004 46.4015 145.61 46.3264C146.448 46.2652 147.089 45.558 147.067 44.7187C147.067 43.7558 146.319 43.1857 145.219 43.1857H143.458V48.9977L143.344 49.023ZM144.118 43.7183H145.003C145.939 43.7183 146.27 44.2627 146.27 44.8834C146.27 45.7314 145.536 45.9841 144.813 45.9841H144.092V43.7183H144.118ZM148.687 49.023H149.421V44.3899L152.599 49.0486H153.283V43.25H152.599V47.846L149.46 43.25H148.802V49.0605L148.687 49.023ZM155.017 49.023H158.094V48.4146H155.764V46.3892H157.967V45.7823H155.752V43.8573H158.031V43.25H155.043V49.0605L155.017 49.023Z" fill="#667079" style="fill:#667079;fill:color(display-p3 0.4000 0.4392 0.4745);fill-opacity:1;"/>
<path fill-rule="evenodd" clip-rule="evenodd" d="M25.4148 32.7789V36.3488C25.4148 37.6153 24.6928 38.0954 23.8328 38.0954C23.396 38.1762 22.9472 38.0434 22.6241 37.7382C22.3013 37.4331 22.144 36.992 22.1995 36.5521C22.1995 36.0195 22.1995 35.4632 22.1995 34.9188V32.7789H21.477V34.8548C21.477 35.4379 21.477 35.9824 21.477 36.4384C21.4188 37.0548 21.6447 37.6662 22.0904 38.097C22.536 38.5292 23.1536 38.7325 23.77 38.6533C24.4056 38.7341 25.0458 38.5189 25.5033 38.0702C25.9624 37.6214 26.1913 36.9874 26.1239 36.3488V32.728L25.4148 32.7789ZM27.7316 38.5905H28.5287V33.9558L31.6694 38.6533H32.3276V32.8294H31.5932V37.4254L28.4407 32.8294H27.7691V38.6399L27.7316 38.5905ZM34.0624 38.5905H34.7833V32.7789H34.0999V38.5905H34.0624ZM38.1514 38.5905H38.8214L41.2906 32.7789H40.5562L38.5059 37.7413L36.6318 32.7789H35.8094L38.1633 38.5905H38.1514ZM42.2657 38.5905H45.3421V37.9817H43.0001V35.9567H45.2031V35.3617H43.0119V33.3873H45.2912V32.7789H42.3167V38.5905H42.2657ZM46.6209 38.5905H47.3552V36.0586H47.8112C48.3679 36.0586 48.5322 36.3997 48.9001 36.8557L50.1655 38.5518H51.0388L49.7734 36.7795C49.533 36.4759 49.2037 35.9567 48.8105 35.8805C49.6479 35.8208 50.2895 35.1117 50.2673 34.2729C50.2673 33.3111 49.5192 32.7414 48.4185 32.7414H46.6718V38.5518L46.6209 38.5905ZM47.3927 33.2858H48.2542C49.1903 33.2858 49.5192 33.8303 49.5192 34.4509C49.5192 35.2989 48.7849 35.5516 48.0643 35.5516H47.3418V33.2858H47.3927ZM51.7732 38.2482C52.2472 38.556 52.8039 38.7149 53.369 38.7042C53.8445 38.7582 54.3216 38.6069 54.6792 38.2869C55.0368 37.9683 55.2416 37.5123 55.2416 37.0322C55.2416 35.209 52.6346 35.5007 52.6346 34.2219C52.6331 33.9424 52.7483 33.6744 52.9532 33.483C53.1565 33.2904 53.4302 33.1916 53.7101 33.2096C54.1676 33.2096 54.6133 33.3605 54.9766 33.6404L55.255 33.1078C54.7913 32.816 54.2572 32.6591 53.7101 32.6533C53.2687 32.6024 52.8276 32.7398 52.4941 33.0316C52.1591 33.3233 51.9615 33.7403 51.9512 34.1848C51.9512 36.2098 54.4831 35.6144 54.4831 37.0831C54.4877 37.3821 54.3652 37.6708 54.145 37.8726C53.9253 38.0763 53.6278 38.1762 53.3303 38.1464C52.8755 38.1314 52.4344 37.9817 52.0649 37.7172L51.7479 38.2363L51.7732 38.2482ZM56.559 38.5905H57.28V32.7789H56.559V38.5905ZM58.3941 33.3873H60.1798V38.5905H60.9008V33.3873H62.7374V32.7789H58.3941V33.3873ZM64.2314 32.3225H65.0033V31.4626H64.2314V32.3225ZM65.6105 32.3225H66.3835V31.4626H65.6105V32.3225ZM62.5341 38.6533H63.3071L64.1043 36.7033H66.5091L67.2691 38.6533H68.0662L65.7119 32.8294H65.0285L62.4966 38.6533H62.5341ZM66.2686 36.1213H64.357L65.3321 33.501L66.2445 36.1213H66.2686ZM67.8763 33.4504H69.7129V38.6533H70.4335V33.4504H72.2701V32.8432H67.8641V33.4504H67.8763ZM72.9402 38.311C73.4157 38.6192 73.9708 38.7777 74.536 38.767C75.013 38.821 75.4889 38.6697 75.8461 38.3512C76.2053 38.0311 76.4101 37.5751 76.4101 37.0965C76.4101 35.2733 73.8016 35.5635 73.8016 34.2863C73.8016 34.0052 73.9169 33.7376 74.1202 33.5462C74.3238 33.3547 74.5987 33.2559 74.8786 33.2724C75.3362 33.2724 75.7818 33.4233 76.1436 33.7031L76.422 33.1721C75.9599 32.8804 75.4246 32.7218 74.8786 32.7161C74.4372 32.6667 73.9961 32.8026 73.6611 33.0944C73.3261 33.3861 73.1301 33.8046 73.1182 34.2476C73.1182 36.2741 75.6501 35.6788 75.6501 37.1474C75.6547 37.4465 75.5322 37.7336 75.3124 37.9369C75.0923 38.1391 74.7963 38.239 74.4988 38.2107C74.0424 38.1958 73.6014 38.046 73.2319 37.7799L72.9164 38.2991L72.9402 38.311ZM77.2206 38.311C77.6946 38.6192 78.2494 38.7777 78.8149 38.767C79.2935 38.8256 79.7736 38.6759 80.1339 38.3558C80.4946 38.0372 80.7009 37.5782 80.7025 37.0965C80.7025 35.2733 78.094 35.5635 78.094 34.2863C78.0924 34.0052 78.2077 33.7376 78.4125 33.5462C78.6162 33.3547 78.8896 33.2559 79.1695 33.2724C79.6151 33.238 80.0592 33.3501 80.436 33.5894L80.7143 33.0569C80.2446 32.7877 79.7108 32.6533 79.1695 32.6652C78.7295 32.6158 78.2869 32.7532 77.9535 33.0435C77.6184 33.3352 77.4209 33.7537 77.4105 34.1967C77.4105 36.2232 79.9425 35.6278 79.9425 37.0965C79.9517 37.3971 79.8288 37.6873 79.609 37.8906C79.3877 38.0939 79.0887 38.1927 78.7896 38.1598C78.3348 38.1448 77.8937 37.9955 77.5243 37.729L77.2072 38.2482L77.2206 38.311ZM82.7275 33.3486H83.6008C84.5369 33.3486 84.8662 33.893 84.8662 34.5137C84.8796 34.8456 84.7479 35.1688 84.504 35.3962C84.262 35.6248 83.9327 35.7369 83.6008 35.704H82.6765V33.2858L82.7275 33.3486ZM81.9675 38.6533H82.6899V36.2485H83.5246C84.4875 36.2485 85.5883 35.8043 85.5883 34.5137C85.6078 34.032 85.4133 33.5668 85.0561 33.2437C84.6985 32.9209 84.2168 32.7743 83.7398 32.8432H82.044V38.6533H81.9675ZM86.7656 38.6533H87.4877V32.8432H86.7656V38.6533ZM88.6022 33.4504H90.4369V38.6533H91.1594V33.4504H92.9945V32.8432H88.6275V33.4504H88.6022ZM92.7927 38.6533H93.539L94.3614 36.6524H96.7681L97.5262 38.6027H98.3248L95.9694 32.7789H95.286L92.7537 38.6027L92.7927 38.6533ZM96.5016 36.1213H94.6022L95.6283 33.4367L96.5391 36.0586L96.5016 36.1213ZM102.465 38.6533V38.046H99.9325V32.8432H99.2104V38.6533H102.465ZM106.035 38.6533H107.668C108.807 38.6533 109.542 38.0717 109.542 37.0456C109.582 36.3457 109.083 35.7312 108.389 35.6278C109.029 35.5068 109.471 34.9203 109.415 34.2729C109.415 33.6147 108.984 32.867 107.705 32.867H106.086V38.6789L106.035 38.6533ZM106.794 35.9062H107.478C108.314 35.9062 108.819 36.2741 108.819 36.9828C108.819 37.6919 108.351 38.1092 107.554 38.1092H106.769V35.9062H106.794ZM106.794 33.3739H107.376C108.301 33.3739 108.643 33.7284 108.643 34.3747C108.643 35.0191 108.25 35.3751 107.3 35.3751H106.756V33.2858L106.794 33.3739ZM110.909 38.6789H113.985V38.0717H111.669V36.0452H113.872V35.3617H111.669V33.3873H113.948V32.7789H110.971V38.5905L110.909 38.6789ZM115.264 38.6789H115.998V36.1466H116.454C117.011 36.1466 117.175 36.4878 117.543 36.9441L118.808 38.6399H119.707L118.442 36.8676C118.201 36.5639 117.872 36.0452 117.479 35.969C118.316 35.9089 118.958 35.2002 118.936 34.3609C118.936 33.3995 118.188 32.8294 117.087 32.8294H115.327V38.6399L115.264 38.6789ZM116.036 33.3739H116.897C117.833 33.3739 118.162 33.9183 118.162 34.5389C118.162 35.387 117.428 35.6397 116.707 35.6397H115.985V33.2858L116.036 33.3739ZM120.606 38.6789H121.34V34.0454L124.53 38.6533H125.214V32.8294H124.48V37.4254L121.315 32.8294H120.632V38.6399L120.606 38.6789Z" fill="#667079" style="fill:#667079;fill:color(display-p3 0.4000 0.4392 0.4745);fill-opacity:1;"/>
<path fill-rule="evenodd" clip-rule="evenodd" d="M91.0082 8.96619C88.2741 8.96619 86.3234 10.6371 86.3234 13.0162C86.3234 18.4093 93.1224 16.8149 93.1224 20.7275C93.1193 21.5082 92.7863 22.2519 92.2047 22.7722C91.6227 23.2941 90.8478 23.5437 90.0714 23.4614C88.703 23.3523 87.3916 22.8763 86.2732 22.0807L85.5015 23.4614L85.9693 23.7025L85.9555 23.7396C87.209 24.5712 88.6807 25.0124 90.185 25.0067C93.565 25.0067 95.1731 22.866 95.1731 20.5749C95.1731 15.7381 88.2486 16.5233 88.2486 13.1311C88.2424 12.3864 88.5462 11.675 89.0861 11.1635C89.6259 10.6535 90.3545 10.3885 91.0962 10.4349C92.2838 10.4498 93.434 10.8493 94.3763 11.5733L95.1103 10.1686C93.8794 9.39677 92.4604 8.98112 91.0082 8.96619ZM113.873 9.24437V24.6519H115.784V9.24437H113.873ZM119.683 9.24437V10.801H124.557V24.613H126.417V10.801H131.292V9.24437H119.683ZM138.369 9.24437L131.799 24.7267H133.786L135.938 19.5878H142.269L144.306 24.7267H146.447L140.192 9.24437H138.369ZM150.067 9.24437V24.6519L158.474 24.7028V23.0558H151.992V9.24437H150.067ZM99.6928 9.28205V24.6519H101.592V18.3214H103.795C106.327 18.3214 109.277 17.1441 109.277 13.7132C109.277 10.7758 107.289 9.28205 104.377 9.28205H99.6928ZM101.541 10.5742H101.592H103.909C106.44 10.5742 107.339 12.0169 107.339 13.6755C107.365 14.5503 107.013 15.3973 106.375 15.9972C105.735 16.5968 104.87 16.8943 103.997 16.815H101.541V10.5742ZM139.142 11.0283L141.572 17.9798H136.61L139.142 11.0283Z" fill="#00956C" style="fill:#00956C;fill:color(display-p3 0.0000 0.5843 0.4235);fill-opacity:1;"/>
<path fill-rule="evenodd" clip-rule="evenodd" d="M51.5332 8.81337C50.1782 8.78045 48.8613 9.25461 47.8367 10.1433C46.8841 11.0016 46.3454 12.2277 46.3561 13.5107C46.3561 16.3076 48.4063 17.2198 50.2177 18.0304C51.547 18.6495 52.8122 19.1941 52.8122 20.461C52.8241 21.007 52.5807 21.5261 52.1542 21.8657C51.6427 22.247 51.0187 22.4427 50.3816 22.4232C49.3034 22.272 48.2734 21.8773 47.3683 21.2716L46.9884 21.0682H46.9124V21.1448L45.6466 23.2966V23.3726H45.7231C46.4487 23.7869 47.2114 24.1341 48.0012 24.4106C48.8654 24.7126 49.772 24.8763 50.6855 24.8927C52.0661 24.9586 53.4195 24.5067 54.4843 23.6257C55.3936 22.8151 55.9156 21.6543 55.9141 20.4353C55.9141 17.4217 53.9013 16.5484 52.1171 15.7888C50.7621 15.2325 49.5848 14.739 49.5848 13.4724C49.5713 12.8874 49.8121 12.3235 50.2428 11.9272C50.7245 11.5279 51.3376 11.3198 51.9639 11.3451C52.3993 11.36 52.8286 11.4562 53.231 11.6239C53.7333 11.8184 54.2136 12.0696 54.6608 12.3717H54.7367V12.2813L55.8513 10.1175V10.0416H55.7747C55.1227 9.65868 54.4259 9.36078 53.6988 9.15557L53.6856 9.10531C52.9858 8.91082 52.2618 8.81184 51.5332 8.81337ZM29.3794 9.0407L29.3914 24.7264H32.227L32.2013 13.4605L38.9631 24.803H42.2534V9.1424H39.4429L39.4058 20.4861L32.5303 9.0407H29.3794ZM21.5036 9.1424L21.4916 24.7264H24.5049L24.4918 9.1424H21.5036ZM60.0162 9.1424L59.9779 24.7264H68.422V22.1062H62.9403L62.9661 18.0423H68.3334V15.5615H62.9152L62.9284 11.7627H68.422V9.1424H60.0162ZM73.3975 9.1424L73.3718 24.7264H82.4368V22.1062H76.3976L76.3605 9.1424H73.3975Z" fill="#667079" style="fill:#667079;fill:color(display-p3 0.4000 0.4392 0.4745);fill-opacity:1;"/>
</svg>
